%TF.GenerationSoftware,Altium Limited,Altium Designer,24.7.2 (38)*%
G04 Layer_Color=65535*
%FSLAX26Y26*%
%MOIN*%
%TF.SameCoordinates,5A157747-18B5-4676-A4C7-82BAAE217A37*%
%TF.FilePolarity,Positive*%
%TF.FileFunction,Legend,Top*%
%TF.Part,Single*%
G01*
G75*
%TA.AperFunction,NonConductor*%
%ADD32C,0.009842*%
%ADD33C,0.007874*%
%ADD34C,0.001968*%
%ADD35C,0.005906*%
%ADD36C,0.003937*%
%ADD37C,0.005000*%
%ADD38C,0.003000*%
G36*
X189853Y562829D02*
Y561936D01*
X189853Y527097D01*
X189853Y526035D01*
X190267Y523952D01*
X191080Y521990D01*
X192260Y520223D01*
X193011Y519472D01*
X193011D01*
X194320Y518164D01*
X194744Y517740D01*
X195743Y517072D01*
X196853Y516612D01*
X198031Y516378D01*
X198632D01*
X198633D01*
X222905D01*
X223487D01*
X224607Y516686D01*
X225607Y517279D01*
X226413Y518117D01*
X226691Y518627D01*
X226692Y518628D01*
X227297Y519738D01*
X228220Y522091D01*
X228844Y524541D01*
X229158Y527049D01*
X229157Y528313D01*
X229158Y528314D01*
Y563364D01*
X214865D01*
Y539604D01*
X214865Y532456D01*
X214814Y531933D01*
X214415Y530967D01*
X213675Y530227D01*
X212708Y529828D01*
X212185Y529777D01*
X212185D01*
X207719Y529777D01*
X207196Y529828D01*
X206230Y530228D01*
X205490Y530968D01*
X205090Y531934D01*
X205039Y532457D01*
Y532457D01*
Y563364D01*
X189853D01*
Y562829D01*
D02*
G37*
G36*
X231972Y563349D02*
Y516378D01*
X246846D01*
X248454Y534065D01*
X258905Y516780D01*
X273779D01*
X261317Y539693D01*
X272938Y563349D01*
X259395D01*
X247248Y544919D01*
X246847Y563349D01*
X231972D01*
D02*
G37*
G36*
X933071Y35034D02*
X968504D01*
X933071Y70467D01*
Y35034D01*
D02*
G37*
G36*
X420915Y413386D02*
X333661D01*
Y448570D01*
X420915D01*
Y413386D01*
D02*
G37*
G36*
X919043Y468504D02*
X803612D01*
Y510225D01*
X919043D01*
Y468504D01*
D02*
G37*
G36*
X907694Y368738D02*
X814961D01*
Y409991D01*
X907694D01*
Y368738D01*
D02*
G37*
G36*
X895789Y269147D02*
X826865D01*
Y309582D01*
X895789D01*
Y269147D01*
D02*
G37*
G36*
X897310Y169147D02*
X825344D01*
Y209582D01*
X897310D01*
Y169147D01*
D02*
G37*
G36*
X893800Y68826D02*
X828854D01*
Y109904D01*
X893800D01*
Y68826D01*
D02*
G37*
G36*
X195692Y485800D02*
X195961Y485774D01*
X196284Y485747D01*
X196633Y485720D01*
X197037Y485666D01*
X197844Y485478D01*
X198705Y485236D01*
X199108Y485074D01*
X199512Y484886D01*
X199915Y484671D01*
X200265Y484429D01*
X200292Y484402D01*
X200345Y484375D01*
X200453Y484294D01*
X200561Y484187D01*
X200722Y484025D01*
X200883Y483864D01*
X201072Y483675D01*
X201260Y483433D01*
X201475Y483191D01*
X201664Y482895D01*
X201879Y482599D01*
X202067Y482250D01*
X202390Y481523D01*
X202551Y481093D01*
X202659Y480663D01*
X199108Y479990D01*
Y480017D01*
X199081Y480044D01*
X199027Y480205D01*
X198947Y480447D01*
X198785Y480743D01*
X198597Y481066D01*
X198355Y481389D01*
X198059Y481739D01*
X197709Y482034D01*
X197655Y482061D01*
X197521Y482142D01*
X197306Y482277D01*
X197010Y482411D01*
X196633Y482546D01*
X196203Y482680D01*
X195692Y482761D01*
X195154Y482788D01*
X194939D01*
X194777Y482761D01*
X194562Y482734D01*
X194347Y482707D01*
X193809Y482599D01*
X193217Y482411D01*
X192598Y482142D01*
X192302Y481981D01*
X192006Y481792D01*
X191711Y481550D01*
X191442Y481281D01*
X191415Y481254D01*
X191388Y481201D01*
X191307Y481120D01*
X191226Y481012D01*
X191119Y480851D01*
X191011Y480663D01*
X190904Y480447D01*
X190769Y480178D01*
X190635Y479882D01*
X190527Y479560D01*
X190419Y479183D01*
X190312Y478807D01*
X190231Y478376D01*
X190150Y477892D01*
X190124Y477408D01*
X190097Y476870D01*
Y476843D01*
Y476735D01*
Y476574D01*
X190124Y476359D01*
X190150Y476090D01*
X190177Y475794D01*
X190204Y475471D01*
X190258Y475094D01*
X190419Y474341D01*
X190688Y473534D01*
X190823Y473158D01*
X191011Y472808D01*
X191226Y472458D01*
X191469Y472135D01*
X191495Y472108D01*
X191522Y472082D01*
X191603Y472001D01*
X191711Y471893D01*
X191872Y471786D01*
X192033Y471651D01*
X192222Y471490D01*
X192464Y471355D01*
X192975Y471059D01*
X193594Y470817D01*
X193943Y470710D01*
X194320Y470656D01*
X194723Y470602D01*
X195127Y470575D01*
X195315D01*
X195530Y470602D01*
X195826Y470629D01*
X196149Y470683D01*
X196526Y470763D01*
X196929Y470871D01*
X197360Y471005D01*
X197413Y471032D01*
X197548Y471086D01*
X197763Y471167D01*
X198032Y471301D01*
X198328Y471463D01*
X198651Y471651D01*
X198974Y471839D01*
X199296Y472082D01*
Y474341D01*
X195234D01*
Y477327D01*
X202901D01*
Y470252D01*
X202847Y470199D01*
X202686Y470064D01*
X202444Y469876D01*
X202067Y469607D01*
X201610Y469311D01*
X201045Y468988D01*
X200399Y468665D01*
X199646Y468342D01*
X199619D01*
X199538Y468315D01*
X199431Y468262D01*
X199269Y468208D01*
X199081Y468154D01*
X198866Y468100D01*
X198597Y468020D01*
X198301Y467939D01*
X197655Y467804D01*
X196929Y467670D01*
X196149Y467562D01*
X195342Y467535D01*
X195073D01*
X194885Y467562D01*
X194643D01*
X194347Y467589D01*
X194051Y467643D01*
X193701Y467670D01*
X192948Y467831D01*
X192141Y468020D01*
X191307Y468315D01*
X190904Y468477D01*
X190500Y468692D01*
X190473Y468719D01*
X190419Y468746D01*
X190312Y468827D01*
X190177Y468907D01*
X189989Y469015D01*
X189801Y469176D01*
X189343Y469553D01*
X188859Y470010D01*
X188348Y470575D01*
X187864Y471248D01*
X187434Y472001D01*
Y472028D01*
X187380Y472108D01*
X187353Y472216D01*
X187272Y472377D01*
X187191Y472593D01*
X187111Y472835D01*
X187030Y473104D01*
X186922Y473400D01*
X186815Y473749D01*
X186734Y474126D01*
X186573Y474906D01*
X186465Y475794D01*
X186411Y476735D01*
Y476762D01*
Y476870D01*
Y477004D01*
X186438Y477192D01*
Y477435D01*
X186465Y477731D01*
X186519Y478026D01*
X186546Y478376D01*
X186680Y479129D01*
X186895Y479963D01*
X187165Y480797D01*
X187541Y481631D01*
X187568Y481658D01*
X187595Y481739D01*
X187676Y481846D01*
X187756Y481981D01*
X187891Y482169D01*
X188025Y482384D01*
X188402Y482841D01*
X188886Y483380D01*
X189451Y483944D01*
X190150Y484455D01*
X190930Y484940D01*
X190957D01*
X191011Y484967D01*
X191092Y485020D01*
X191226Y485074D01*
X191415Y485155D01*
X191603Y485209D01*
X191845Y485289D01*
X192087Y485397D01*
X192383Y485478D01*
X192706Y485558D01*
X193056Y485612D01*
X193432Y485693D01*
X194239Y485800D01*
X195154Y485827D01*
X195477D01*
X195692Y485800D01*
D02*
G37*
G36*
X220251Y467858D02*
X216674D01*
X209518Y479452D01*
Y467858D01*
X206210D01*
Y485531D01*
X209653D01*
X216943Y473669D01*
Y485531D01*
X220251D01*
Y467858D01*
D02*
G37*
G36*
X231254Y485505D02*
X231738Y485478D01*
X232303Y485451D01*
X232841Y485397D01*
X233379Y485289D01*
X233863Y485182D01*
X233890D01*
X233944Y485155D01*
X234024Y485128D01*
X234132Y485101D01*
X234401Y484967D01*
X234778Y484805D01*
X235181Y484590D01*
X235611Y484294D01*
X236069Y483944D01*
X236499Y483541D01*
X236526D01*
X236553Y483487D01*
X236687Y483326D01*
X236876Y483084D01*
X237145Y482761D01*
X237414Y482330D01*
X237683Y481846D01*
X237952Y481308D01*
X238194Y480690D01*
Y480663D01*
X238221Y480609D01*
X238248Y480528D01*
X238274Y480394D01*
X238328Y480232D01*
X238382Y480017D01*
X238436Y479802D01*
X238490Y479533D01*
X238543Y479237D01*
X238597Y478941D01*
X238705Y478215D01*
X238759Y477408D01*
X238786Y476520D01*
Y476493D01*
Y476412D01*
Y476305D01*
Y476143D01*
X238759Y475955D01*
Y475740D01*
X238705Y475229D01*
X238651Y474637D01*
X238543Y474018D01*
X238409Y473373D01*
X238221Y472754D01*
Y472727D01*
X238194Y472673D01*
X238167Y472566D01*
X238113Y472431D01*
X238032Y472270D01*
X237952Y472082D01*
X237737Y471651D01*
X237468Y471140D01*
X237145Y470629D01*
X236768Y470118D01*
X236338Y469634D01*
X236284Y469607D01*
X236176Y469472D01*
X235961Y469311D01*
X235692Y469123D01*
X235315Y468880D01*
X234885Y468638D01*
X234401Y468423D01*
X233836Y468208D01*
X233782Y468181D01*
X233621Y468154D01*
X233379Y468100D01*
X233002Y468046D01*
X232572Y467966D01*
X232034Y467912D01*
X231388Y467885D01*
X230689Y467858D01*
X224018D01*
Y485531D01*
X231038D01*
X231254Y485505D01*
D02*
G37*
G36*
X222659Y381301D02*
X227286D01*
Y378180D01*
X222659D01*
Y373607D01*
X219565D01*
Y378180D01*
X214939D01*
Y381301D01*
X219565D01*
Y385874D01*
X222659D01*
Y381301D01*
D02*
G37*
G36*
X205147Y388725D02*
X205631Y388698D01*
X206196Y388671D01*
X206734Y388618D01*
X207272Y388510D01*
X207756Y388402D01*
X207783D01*
X207837Y388375D01*
X207918Y388349D01*
X208025Y388322D01*
X208294Y388187D01*
X208671Y388026D01*
X209075Y387810D01*
X209505Y387515D01*
X209962Y387165D01*
X210393Y386761D01*
X210419D01*
X210446Y386708D01*
X210581Y386546D01*
X210769Y386304D01*
X211038Y385981D01*
X211307Y385551D01*
X211576Y385067D01*
X211845Y384529D01*
X212087Y383910D01*
Y383883D01*
X212114Y383829D01*
X212141Y383749D01*
X212168Y383614D01*
X212222Y383453D01*
X212276Y383238D01*
X212329Y383022D01*
X212383Y382753D01*
X212437Y382457D01*
X212491Y382161D01*
X212598Y381435D01*
X212652Y380628D01*
X212679Y379740D01*
Y379714D01*
Y379633D01*
Y379525D01*
Y379364D01*
X212652Y379176D01*
Y378960D01*
X212598Y378449D01*
X212545Y377858D01*
X212437Y377239D01*
X212303Y376593D01*
X212114Y375974D01*
Y375948D01*
X212087Y375894D01*
X212060Y375786D01*
X212007Y375652D01*
X211926Y375490D01*
X211845Y375302D01*
X211630Y374872D01*
X211361Y374361D01*
X211038Y373849D01*
X210662Y373338D01*
X210231Y372854D01*
X210177Y372827D01*
X210070Y372693D01*
X209855Y372531D01*
X209586Y372343D01*
X209209Y372101D01*
X208779Y371859D01*
X208294Y371644D01*
X207730Y371428D01*
X207676Y371401D01*
X207514Y371375D01*
X207272Y371321D01*
X206896Y371267D01*
X206465Y371186D01*
X205927Y371132D01*
X205282Y371106D01*
X204582Y371079D01*
X197911D01*
Y388752D01*
X204932D01*
X205147Y388725D01*
D02*
G37*
G36*
X224609Y295078D02*
X217965D01*
Y298467D01*
X224609D01*
Y295078D01*
D02*
G37*
G36*
X207824Y308017D02*
X208308Y307990D01*
X208873Y307963D01*
X209411Y307909D01*
X209949Y307801D01*
X210433Y307694D01*
X210460D01*
X210514Y307667D01*
X210594Y307640D01*
X210702Y307613D01*
X210971Y307478D01*
X211348Y307317D01*
X211751Y307102D01*
X212181Y306806D01*
X212639Y306456D01*
X213069Y306053D01*
X213096D01*
X213123Y305999D01*
X213257Y305838D01*
X213446Y305596D01*
X213715Y305273D01*
X213984Y304842D01*
X214253Y304358D01*
X214522Y303820D01*
X214764Y303201D01*
Y303175D01*
X214791Y303121D01*
X214818Y303040D01*
X214845Y302906D01*
X214898Y302744D01*
X214952Y302529D01*
X215006Y302314D01*
X215060Y302045D01*
X215114Y301749D01*
X215167Y301453D01*
X215275Y300727D01*
X215329Y299920D01*
X215356Y299032D01*
Y299005D01*
Y298924D01*
Y298817D01*
Y298655D01*
X215329Y298467D01*
Y298252D01*
X215275Y297741D01*
X215221Y297149D01*
X215114Y296530D01*
X214979Y295885D01*
X214791Y295266D01*
Y295239D01*
X214764Y295185D01*
X214737Y295078D01*
X214683Y294943D01*
X214602Y294782D01*
X214522Y294593D01*
X214307Y294163D01*
X214038Y293652D01*
X213715Y293141D01*
X213338Y292630D01*
X212908Y292146D01*
X212854Y292119D01*
X212746Y291984D01*
X212531Y291823D01*
X212262Y291634D01*
X211886Y291392D01*
X211455Y291150D01*
X210971Y290935D01*
X210406Y290720D01*
X210352Y290693D01*
X210191Y290666D01*
X209949Y290612D01*
X209572Y290558D01*
X209142Y290478D01*
X208604Y290424D01*
X207958Y290397D01*
X207259Y290370D01*
X200588D01*
Y308043D01*
X207608D01*
X207824Y308017D01*
D02*
G37*
G36*
X220843Y195220D02*
X216997D01*
X210675Y212894D01*
X214522D01*
X219014Y199820D01*
X223318Y212894D01*
X227138D01*
X220843Y195220D01*
D02*
G37*
G36*
X209142Y209451D02*
X202740D01*
X202202Y206465D01*
X202255Y206492D01*
X202390Y206545D01*
X202632Y206653D01*
X202928Y206761D01*
X203251Y206841D01*
X203654Y206949D01*
X204085Y207003D01*
X204515Y207030D01*
X204730D01*
X204892Y207003D01*
X205080Y206976D01*
X205322Y206949D01*
X205564Y206895D01*
X205833Y206814D01*
X206452Y206626D01*
X206748Y206492D01*
X207071Y206330D01*
X207393Y206142D01*
X207716Y205927D01*
X208039Y205685D01*
X208335Y205389D01*
X208362Y205362D01*
X208416Y205308D01*
X208469Y205227D01*
X208577Y205093D01*
X208711Y204931D01*
X208846Y204743D01*
X208980Y204501D01*
X209142Y204232D01*
X209276Y203936D01*
X209411Y203613D01*
X209545Y203263D01*
X209680Y202887D01*
X209787Y202483D01*
X209841Y202053D01*
X209895Y201596D01*
X209922Y201112D01*
Y201085D01*
Y201004D01*
Y200896D01*
X209895Y200735D01*
Y200547D01*
X209868Y200331D01*
X209814Y200089D01*
X209761Y199820D01*
X209626Y199202D01*
X209384Y198556D01*
X209088Y197883D01*
X208873Y197534D01*
X208658Y197211D01*
X208631Y197184D01*
X208577Y197103D01*
X208469Y196996D01*
X208335Y196861D01*
X208173Y196673D01*
X207958Y196485D01*
X207689Y196269D01*
X207420Y196054D01*
X207097Y195839D01*
X206721Y195624D01*
X206344Y195436D01*
X205914Y195247D01*
X205457Y195113D01*
X204945Y195005D01*
X204434Y194924D01*
X203869Y194898D01*
X203627D01*
X203466Y194924D01*
X203251D01*
X203009Y194978D01*
X202740Y195005D01*
X202444Y195059D01*
X201825Y195220D01*
X201153Y195436D01*
X200507Y195758D01*
X200184Y195974D01*
X199888Y196189D01*
X199861Y196216D01*
X199834Y196243D01*
X199754Y196323D01*
X199646Y196431D01*
X199512Y196565D01*
X199377Y196727D01*
X199243Y196915D01*
X199081Y197130D01*
X198758Y197641D01*
X198463Y198233D01*
X198220Y198959D01*
X198140Y199336D01*
X198059Y199740D01*
X201422Y200089D01*
Y200036D01*
X201448Y199901D01*
X201502Y199686D01*
X201583Y199417D01*
X201690Y199148D01*
X201825Y198825D01*
X202013Y198529D01*
X202255Y198260D01*
X202282Y198233D01*
X202390Y198153D01*
X202524Y198045D01*
X202740Y197937D01*
X202982Y197830D01*
X203251Y197722D01*
X203573Y197641D01*
X203896Y197614D01*
X203950D01*
X204085Y197641D01*
X204273Y197668D01*
X204515Y197722D01*
X204811Y197830D01*
X205107Y197991D01*
X205403Y198179D01*
X205699Y198475D01*
X205726Y198529D01*
X205806Y198637D01*
X205941Y198852D01*
X206075Y199121D01*
X206210Y199498D01*
X206344Y199928D01*
X206425Y200466D01*
X206452Y201058D01*
Y201085D01*
Y201138D01*
Y201219D01*
Y201327D01*
X206425Y201623D01*
X206371Y201972D01*
X206263Y202376D01*
X206129Y202779D01*
X205941Y203183D01*
X205699Y203506D01*
X205672Y203532D01*
X205564Y203640D01*
X205403Y203775D01*
X205188Y203936D01*
X204918Y204071D01*
X204596Y204205D01*
X204219Y204313D01*
X203816Y204339D01*
X203681D01*
X203573Y204313D01*
X203278Y204286D01*
X202928Y204178D01*
X202524Y204017D01*
X202067Y203802D01*
X201637Y203479D01*
X201395Y203263D01*
X201179Y203048D01*
X198463Y203425D01*
X200184Y212625D01*
X209142D01*
Y209451D01*
D02*
G37*
%LPC*%
G36*
X378679Y447570D02*
X378093D01*
X376776Y447521D01*
X375556Y447375D01*
X374482Y447228D01*
X373555Y447033D01*
X372823Y446789D01*
X372530Y446691D01*
X372286Y446643D01*
X372091Y446545D01*
X371896Y446496D01*
X371847Y446447D01*
X371798D01*
X370871Y446008D01*
X370090Y445471D01*
X369407Y444935D01*
X368870Y444398D01*
X368431Y443910D01*
X368089Y443519D01*
X367894Y443275D01*
X367845Y443227D01*
Y443178D01*
X367406Y442348D01*
X367065Y441567D01*
X366821Y440787D01*
X366674Y440103D01*
X366577Y439469D01*
X366479Y439030D01*
Y438835D01*
Y438688D01*
Y438639D01*
Y438591D01*
X366528Y437907D01*
X366625Y437224D01*
X366772Y436590D01*
X366918Y436004D01*
X367406Y434882D01*
X367943Y433955D01*
X368236Y433564D01*
X368480Y433174D01*
X368724Y432881D01*
X368968Y432637D01*
X369114Y432442D01*
X369261Y432295D01*
X369358Y432198D01*
X369407Y432149D01*
X369846Y431807D01*
X370334Y431466D01*
X371408Y430831D01*
X372628Y430295D01*
X373848Y429855D01*
X374921Y429465D01*
X375409Y429319D01*
X375849Y429221D01*
X376190Y429123D01*
X376434Y429026D01*
X376629Y428977D01*
X376678D01*
X377410Y428782D01*
X378045Y428635D01*
X378630Y428489D01*
X379167Y428343D01*
X379655Y428196D01*
X380045Y428099D01*
X380436Y428001D01*
X380729Y427903D01*
X381217Y427757D01*
X381558Y427659D01*
X381753Y427562D01*
X381802D01*
X382388Y427318D01*
X382876Y427074D01*
X383266Y426879D01*
X383608Y426635D01*
X383852Y426439D01*
X383998Y426293D01*
X384096Y426195D01*
X384145Y426147D01*
X384389Y425854D01*
X384535Y425512D01*
X384730Y424927D01*
X384779Y424634D01*
X384828Y424439D01*
Y424292D01*
Y424243D01*
X384779Y423609D01*
X384584Y423023D01*
X384340Y422487D01*
X384047Y422047D01*
X383705Y421657D01*
X383461Y421413D01*
X383266Y421218D01*
X383217Y421169D01*
X382583Y420730D01*
X381851Y420388D01*
X381070Y420193D01*
X380289Y419998D01*
X379606Y419900D01*
X379069Y419851D01*
X378533D01*
X377459Y419900D01*
X376532Y420095D01*
X375751Y420339D01*
X375068Y420583D01*
X374531Y420876D01*
X374141Y421071D01*
X373897Y421267D01*
X373799Y421315D01*
X373213Y421950D01*
X372725Y422682D01*
X372335Y423463D01*
X372042Y424195D01*
X371798Y424927D01*
X371652Y425463D01*
X371603Y425707D01*
Y425854D01*
X371554Y425951D01*
Y426000D01*
X365259Y425366D01*
X365405Y424390D01*
X365601Y423463D01*
X365845Y422584D01*
X366089Y421803D01*
X366430Y421071D01*
X366723Y420388D01*
X367065Y419803D01*
X367406Y419217D01*
X367748Y418778D01*
X368041Y418339D01*
X368333Y417997D01*
X368577Y417704D01*
X368821Y417460D01*
X368968Y417314D01*
X369065Y417216D01*
X369114Y417167D01*
X369749Y416679D01*
X370481Y416240D01*
X371213Y415899D01*
X371945Y415557D01*
X372725Y415313D01*
X373506Y415069D01*
X375019Y414727D01*
X375751Y414630D01*
X376385Y414532D01*
X376971Y414483D01*
X377459Y414435D01*
X377898Y414386D01*
X378484D01*
X379997Y414435D01*
X381314Y414581D01*
X382485Y414727D01*
X383510Y414971D01*
X383949Y415069D01*
X384340Y415167D01*
X384633Y415264D01*
X384925Y415313D01*
X385121Y415411D01*
X385267Y415459D01*
X385365Y415508D01*
X385413D01*
X386438Y415996D01*
X387268Y416582D01*
X388049Y417167D01*
X388634Y417753D01*
X389122Y418241D01*
X389464Y418680D01*
X389708Y418973D01*
X389757Y419022D01*
Y419071D01*
X390293Y419998D01*
X390684Y420925D01*
X390928Y421803D01*
X391123Y422584D01*
X391221Y423267D01*
X391318Y423804D01*
Y424292D01*
X391269Y425366D01*
X391123Y426342D01*
X390879Y427220D01*
X390684Y427952D01*
X390440Y428538D01*
X390196Y429026D01*
X390049Y429270D01*
X390001Y429367D01*
X389464Y430099D01*
X388927Y430783D01*
X388341Y431319D01*
X387756Y431807D01*
X387268Y432149D01*
X386877Y432442D01*
X386585Y432588D01*
X386536Y432637D01*
X386487D01*
X386048Y432881D01*
X385560Y433076D01*
X384437Y433515D01*
X383315Y433857D01*
X382144Y434247D01*
X381119Y434491D01*
X380680Y434638D01*
X380289Y434735D01*
X379948Y434833D01*
X379704Y434882D01*
X379557Y434931D01*
X379509D01*
X378679Y435126D01*
X377898Y435370D01*
X377215Y435565D01*
X376629Y435760D01*
X376044Y435907D01*
X375605Y436102D01*
X375165Y436248D01*
X374824Y436443D01*
X374482Y436590D01*
X374238Y436687D01*
X373848Y436883D01*
X373653Y437029D01*
X373604Y437078D01*
X373311Y437419D01*
X373067Y437712D01*
X372921Y438054D01*
X372774Y438347D01*
X372725Y438639D01*
X372677Y438835D01*
Y438981D01*
Y439030D01*
X372725Y439469D01*
X372823Y439859D01*
X372969Y440201D01*
X373165Y440494D01*
X373360Y440738D01*
X373506Y440884D01*
X373604Y440982D01*
X373653Y441031D01*
X374287Y441421D01*
X375019Y441714D01*
X375751Y441909D01*
X376434Y442055D01*
X377069Y442153D01*
X377605Y442202D01*
X378045D01*
X379021Y442153D01*
X379850Y442007D01*
X380533Y441860D01*
X381119Y441665D01*
X381558Y441421D01*
X381851Y441275D01*
X382046Y441128D01*
X382095Y441079D01*
X382583Y440640D01*
X382973Y440103D01*
X383266Y439518D01*
X383510Y438932D01*
X383705Y438395D01*
X383803Y437956D01*
X383901Y437663D01*
Y437615D01*
Y437566D01*
X390391Y437810D01*
X390342Y438591D01*
X390196Y439371D01*
X390001Y440103D01*
X389805Y440787D01*
X389269Y441958D01*
X389025Y442495D01*
X388732Y442983D01*
X388439Y443422D01*
X388146Y443812D01*
X387902Y444154D01*
X387658Y444398D01*
X387463Y444593D01*
X387317Y444739D01*
X387219Y444837D01*
X387170Y444886D01*
X386585Y445374D01*
X385901Y445764D01*
X385218Y446155D01*
X384486Y446447D01*
X382973Y446935D01*
X381509Y447228D01*
X380826Y447326D01*
X380192Y447423D01*
X379606Y447472D01*
X379069Y447521D01*
X378679Y447570D01*
D02*
G37*
G36*
X419915Y447033D02*
X394588D01*
Y441616D01*
X404006D01*
Y414971D01*
X410497D01*
Y441616D01*
X419915D01*
Y447033D01*
D02*
G37*
G36*
X349009D02*
X334661D01*
Y414971D01*
X341152D01*
Y428343D01*
X343201D01*
X343885Y428294D01*
X344421Y428245D01*
X344861Y428147D01*
X345202Y428099D01*
X345446Y428001D01*
X345593Y427952D01*
X345641D01*
X346032Y427806D01*
X346373Y427611D01*
X347008Y427171D01*
X347252Y426976D01*
X347447Y426781D01*
X347545Y426683D01*
X347593Y426635D01*
X347789Y426439D01*
X347984Y426147D01*
X348521Y425463D01*
X349106Y424731D01*
X349643Y423902D01*
X350180Y423121D01*
X350424Y422828D01*
X350619Y422487D01*
X350765Y422243D01*
X350912Y422047D01*
X350961Y421950D01*
X351009Y421901D01*
X355597Y414971D01*
X363356D01*
X359452Y421218D01*
X359013Y421901D01*
X358622Y422487D01*
X358281Y423072D01*
X357890Y423609D01*
X357305Y424487D01*
X356768Y425219D01*
X356329Y425756D01*
X356036Y426098D01*
X355841Y426342D01*
X355792Y426391D01*
X355255Y426927D01*
X354669Y427415D01*
X354084Y427903D01*
X353547Y428294D01*
X353059Y428635D01*
X352669Y428879D01*
X352425Y429026D01*
X352376Y429075D01*
X352327D01*
X353108Y429221D01*
X353791Y429367D01*
X354474Y429563D01*
X355060Y429807D01*
X355645Y430051D01*
X356182Y430295D01*
X356621Y430539D01*
X357061Y430783D01*
X357402Y431027D01*
X357744Y431271D01*
X357988Y431515D01*
X358232Y431661D01*
X358378Y431856D01*
X358525Y431954D01*
X358622Y432003D01*
Y432051D01*
X359013Y432491D01*
X359354Y432979D01*
X359842Y433955D01*
X360233Y434979D01*
X360525Y435907D01*
X360672Y436736D01*
X360721Y437078D01*
Y437419D01*
X360769Y437663D01*
Y437859D01*
Y437956D01*
Y438005D01*
X360721Y439030D01*
X360574Y440006D01*
X360330Y440835D01*
X360086Y441567D01*
X359793Y442202D01*
X359598Y442641D01*
X359403Y442934D01*
X359354Y443031D01*
X358769Y443812D01*
X358183Y444447D01*
X357549Y444983D01*
X356963Y445423D01*
X356426Y445764D01*
X355987Y446008D01*
X355694Y446106D01*
X355645Y446155D01*
X355597D01*
X355157Y446301D01*
X354621Y446447D01*
X353449Y446643D01*
X352229Y446838D01*
X351009Y446935D01*
X350473Y446984D01*
X349448D01*
X349009Y447033D01*
D02*
G37*
%LPD*%
G36*
X348960Y441567D02*
X349936D01*
X350375Y441519D01*
X350619D01*
X350765Y441470D01*
X350814D01*
X351351Y441323D01*
X351839Y441177D01*
X352229Y440982D01*
X352571Y440738D01*
X352864Y440543D01*
X353059Y440347D01*
X353157Y440250D01*
X353205Y440201D01*
X353498Y439811D01*
X353693Y439371D01*
X353889Y438932D01*
X353986Y438542D01*
X354035Y438200D01*
X354084Y437907D01*
Y437663D01*
Y437615D01*
X354035Y437078D01*
X353986Y436639D01*
X353889Y436199D01*
X353742Y435858D01*
X353596Y435565D01*
X353498Y435370D01*
X353449Y435223D01*
X353401Y435175D01*
X353157Y434833D01*
X352864Y434589D01*
X352278Y434150D01*
X351985Y434052D01*
X351790Y433955D01*
X351644Y433857D01*
X351595D01*
X351351Y433808D01*
X351009Y433711D01*
X350668Y433662D01*
X350229Y433613D01*
X349301Y433564D01*
X348325Y433515D01*
X347398Y433467D01*
X341152D01*
Y441616D01*
X348521D01*
X348960Y441567D01*
D02*
G37*
%LPC*%
G36*
X824502Y509225D02*
X823800D01*
X821694Y509108D01*
X819822Y508874D01*
X818067Y508465D01*
X817306Y508231D01*
X816604Y508055D01*
X815961Y507821D01*
X815376Y507587D01*
X814849Y507412D01*
X814440Y507178D01*
X814147Y507061D01*
X813855Y506944D01*
X813738Y506827D01*
X813679D01*
X812860Y506359D01*
X812158Y505832D01*
X810754Y504721D01*
X809643Y503551D01*
X808648Y502381D01*
X807946Y501269D01*
X807654Y500860D01*
X807361Y500450D01*
X807186Y500099D01*
X807069Y499865D01*
X806952Y499690D01*
Y499631D01*
X806191Y497818D01*
X805606Y495946D01*
X805197Y494191D01*
X804904Y492553D01*
X804787Y491851D01*
X804729Y491207D01*
X804670Y490622D01*
Y490096D01*
X804612Y489686D01*
Y489160D01*
X804729Y487112D01*
X804963Y485182D01*
X805372Y483427D01*
X805548Y482608D01*
X805782Y481906D01*
X806016Y481204D01*
X806191Y480619D01*
X806425Y480092D01*
X806601Y479683D01*
X806718Y479332D01*
X806835Y479098D01*
X806952Y478922D01*
Y478864D01*
X807946Y477284D01*
X809058Y475880D01*
X810169Y474652D01*
X811339Y473657D01*
X812334Y472897D01*
X812743Y472604D01*
X813153Y472370D01*
X813445Y472136D01*
X813738Y472019D01*
X813855Y471961D01*
X813913Y471902D01*
X815668Y471083D01*
X817482Y470498D01*
X819178Y470089D01*
X820816Y469796D01*
X821518Y469679D01*
X822162Y469621D01*
X822747Y469562D01*
X823273D01*
X823683Y469504D01*
X824209D01*
X825730Y469562D01*
X827251Y469738D01*
X828597Y469972D01*
X829825Y470264D01*
X830352Y470381D01*
X830878Y470498D01*
X831288Y470615D01*
X831639Y470732D01*
X831931Y470849D01*
X832165Y470908D01*
X832282Y470966D01*
X832341D01*
X833803Y471610D01*
X835266Y472312D01*
X836553Y473072D01*
X837723Y473774D01*
X838717Y474476D01*
X839127Y474710D01*
X839478Y475003D01*
X839770Y475178D01*
X839946Y475354D01*
X840063Y475412D01*
X840121Y475471D01*
Y489745D01*
X823858D01*
Y485240D01*
X835149D01*
Y477986D01*
X834447Y477460D01*
X833686Y476933D01*
X832926Y476465D01*
X832165Y476056D01*
X831463Y475705D01*
X830878Y475471D01*
X830644Y475354D01*
X830469Y475295D01*
X830410Y475237D01*
X830352D01*
X829182Y474827D01*
X828012Y474535D01*
X826900Y474301D01*
X825964Y474184D01*
X825145Y474067D01*
X824502Y474008D01*
X823917D01*
X822513Y474067D01*
X821167Y474242D01*
X819997Y474535D01*
X818886Y474827D01*
X818008Y475120D01*
X817599Y475295D01*
X817306Y475412D01*
X817072Y475471D01*
X816897Y475588D01*
X816780Y475646D01*
X816721D01*
X815551Y476348D01*
X814498Y477167D01*
X813621Y478045D01*
X812919Y478864D01*
X812392Y479624D01*
X811983Y480209D01*
X811807Y480443D01*
X811690Y480619D01*
X811632Y480736D01*
Y480794D01*
X811047Y482198D01*
X810637Y483602D01*
X810286Y485065D01*
X810111Y486469D01*
X810052Y487054D01*
X809994Y487639D01*
X809935Y488165D01*
Y488575D01*
X809877Y488984D01*
Y489218D01*
Y489394D01*
Y489452D01*
X809935Y490973D01*
X810111Y492436D01*
X810345Y493723D01*
X810637Y494893D01*
X810871Y495829D01*
X810988Y496238D01*
X811105Y496531D01*
X811222Y496823D01*
X811281Y496999D01*
X811339Y497116D01*
Y497174D01*
X811690Y497935D01*
X812041Y498637D01*
X812451Y499280D01*
X812860Y499865D01*
X813211Y500333D01*
X813504Y500684D01*
X813679Y500918D01*
X813738Y500977D01*
X814381Y501620D01*
X815025Y502147D01*
X815727Y502615D01*
X816370Y503024D01*
X816955Y503375D01*
X817423Y503609D01*
X817716Y503726D01*
X817833Y503785D01*
X818827Y504136D01*
X819822Y504428D01*
X820875Y504604D01*
X821811Y504779D01*
X822630Y504838D01*
X823273Y504896D01*
X823858D01*
X824911Y504838D01*
X825906Y504721D01*
X826783Y504545D01*
X827544Y504370D01*
X828187Y504194D01*
X828714Y504019D01*
X829006Y503902D01*
X829123Y503843D01*
X830001Y503434D01*
X830703Y503024D01*
X831346Y502556D01*
X831873Y502147D01*
X832282Y501737D01*
X832575Y501445D01*
X832750Y501211D01*
X832809Y501152D01*
X833277Y500450D01*
X833686Y499690D01*
X834037Y498929D01*
X834330Y498227D01*
X834564Y497525D01*
X834798Y496999D01*
X834856Y496648D01*
X834915Y496589D01*
Y496531D01*
X839536Y497818D01*
X839127Y499222D01*
X838659Y500450D01*
X838191Y501503D01*
X837723Y502381D01*
X837255Y503141D01*
X836904Y503668D01*
X836670Y503960D01*
X836611Y504077D01*
X835851Y504955D01*
X834973Y505657D01*
X834096Y506300D01*
X833218Y506827D01*
X832458Y507295D01*
X831873Y507587D01*
X831639Y507704D01*
X831463Y507763D01*
X831346Y507821D01*
X831288D01*
X830001Y508289D01*
X828714Y508640D01*
X827427Y508874D01*
X826315Y509050D01*
X825321Y509167D01*
X824853D01*
X824502Y509225D01*
D02*
G37*
G36*
X877795Y508582D02*
X872940D01*
Y478396D01*
X852699Y508582D01*
X847551D01*
Y470147D01*
X852406D01*
Y500333D01*
X872589Y470147D01*
X877795D01*
Y508582D01*
D02*
G37*
G36*
X901078D02*
X886336D01*
Y470147D01*
X900142D01*
X901429Y470206D01*
X902599Y470264D01*
X903652Y470381D01*
X904530Y470498D01*
X905290Y470615D01*
X905817Y470674D01*
X906168Y470791D01*
X906285D01*
X907279Y471083D01*
X908157Y471376D01*
X908917Y471668D01*
X909561Y471961D01*
X910087Y472253D01*
X910497Y472487D01*
X910789Y472604D01*
X910848Y472663D01*
X911550Y473189D01*
X912193Y473774D01*
X912837Y474359D01*
X913305Y474886D01*
X913773Y475412D01*
X914065Y475822D01*
X914299Y476056D01*
X914358Y476173D01*
X914943Y477050D01*
X915469Y477986D01*
X915937Y478922D01*
X916288Y479800D01*
X916581Y480619D01*
X916815Y481204D01*
X916873Y481438D01*
X916932Y481613D01*
X916990Y481730D01*
Y481789D01*
X917341Y483076D01*
X917575Y484421D01*
X917809Y485767D01*
X917926Y486937D01*
X917985Y487990D01*
Y488458D01*
X918043Y488809D01*
Y489569D01*
X917985Y491441D01*
X917809Y493138D01*
X917575Y494659D01*
X917400Y495361D01*
X917283Y496004D01*
X917166Y496589D01*
X916990Y497116D01*
X916873Y497584D01*
X916756Y497935D01*
X916639Y498227D01*
X916581Y498461D01*
X916522Y498578D01*
Y498637D01*
X915879Y500099D01*
X915177Y501386D01*
X914416Y502498D01*
X913656Y503434D01*
X913012Y504194D01*
X912486Y504779D01*
X912076Y505130D01*
X912018Y505247D01*
X911959D01*
X911023Y505949D01*
X910087Y506534D01*
X909151Y507002D01*
X908274Y507353D01*
X907513Y507646D01*
X906870Y507821D01*
X906636Y507938D01*
X906519D01*
X906402Y507997D01*
X906343D01*
X905407Y508172D01*
X904296Y508348D01*
X903126Y508465D01*
X902073Y508523D01*
X901078Y508582D01*
D02*
G37*
%LPD*%
G36*
X901020Y504019D02*
X902365Y503960D01*
X903477Y503843D01*
X904413Y503668D01*
X905115Y503492D01*
X905583Y503375D01*
X905875Y503317D01*
X905992Y503258D01*
X906987Y502732D01*
X907923Y502088D01*
X908742Y501386D01*
X909444Y500626D01*
X910029Y499982D01*
X910438Y499397D01*
X910614Y499163D01*
X910672Y498988D01*
X910789Y498929D01*
Y498871D01*
X911140Y498227D01*
X911433Y497525D01*
X911959Y496063D01*
X912310Y494542D01*
X912544Y493021D01*
X912603Y492377D01*
X912661Y491734D01*
X912720Y491149D01*
X912778Y490622D01*
Y490213D01*
Y489920D01*
Y489686D01*
Y489628D01*
X912720Y488048D01*
X912603Y486644D01*
X912427Y485357D01*
X912252Y484246D01*
X912076Y483368D01*
X911959Y483017D01*
X911901Y482725D01*
X911842Y482491D01*
X911784Y482315D01*
X911725Y482257D01*
Y482198D01*
X911316Y481145D01*
X910848Y480151D01*
X910380Y479332D01*
X909970Y478630D01*
X909561Y478103D01*
X909210Y477694D01*
X908976Y477401D01*
X908917Y477343D01*
X908391Y476875D01*
X907864Y476465D01*
X907279Y476173D01*
X906694Y475880D01*
X906226Y475646D01*
X905817Y475471D01*
X905583Y475412D01*
X905466Y475354D01*
X904588Y475120D01*
X903652Y474944D01*
X902658Y474827D01*
X901722Y474769D01*
X900844Y474710D01*
X900201Y474652D01*
X891426D01*
Y504077D01*
X899440D01*
X901020Y504019D01*
D02*
G37*
%LPC*%
G36*
X894117Y408991D02*
X892771D01*
X891952Y408874D01*
X890490Y408582D01*
X889144Y408172D01*
X888033Y407704D01*
X887155Y407178D01*
X886804Y406944D01*
X886512Y406768D01*
X886219Y406593D01*
X886044Y406476D01*
X885985Y406417D01*
X885927Y406359D01*
X884874Y405306D01*
X884055Y404136D01*
X883353Y402907D01*
X882885Y401737D01*
X882475Y400684D01*
X882358Y400216D01*
X882241Y399807D01*
X882183Y399514D01*
X882124Y399280D01*
X882066Y399105D01*
Y399046D01*
X886804Y398227D01*
X887038Y399456D01*
X887389Y400509D01*
X887740Y401386D01*
X888150Y402088D01*
X888501Y402673D01*
X888793Y403083D01*
X889027Y403317D01*
X889086Y403375D01*
X889846Y403960D01*
X890607Y404370D01*
X891367Y404721D01*
X892128Y404896D01*
X892713Y405013D01*
X893239Y405130D01*
X893707D01*
X894702Y405072D01*
X895579Y404838D01*
X896340Y404604D01*
X896983Y404253D01*
X897510Y403960D01*
X897919Y403668D01*
X898153Y403434D01*
X898212Y403375D01*
X898797Y402732D01*
X899206Y401971D01*
X899557Y401269D01*
X899733Y400626D01*
X899850Y399982D01*
X899967Y399514D01*
Y399222D01*
Y399163D01*
Y399105D01*
X899850Y397935D01*
X899557Y396940D01*
X899206Y396121D01*
X898738Y395478D01*
X898270Y394951D01*
X897919Y394542D01*
X897627Y394308D01*
X897510Y394249D01*
X896574Y393723D01*
X895638Y393372D01*
X894760Y393079D01*
X893941Y392904D01*
X893181Y392787D01*
X892654Y392728D01*
X891894D01*
X891660Y392787D01*
X891367D01*
X890841Y388633D01*
X891543Y388809D01*
X892186Y388926D01*
X892771Y388984D01*
X893239Y389043D01*
X893649Y389101D01*
X894175D01*
X895345Y388984D01*
X896340Y388750D01*
X897276Y388458D01*
X898036Y388048D01*
X898680Y387639D01*
X899148Y387346D01*
X899382Y387112D01*
X899499Y386995D01*
X900201Y386176D01*
X900727Y385299D01*
X901137Y384363D01*
X901371Y383544D01*
X901546Y382783D01*
X901605Y382198D01*
X901663Y381964D01*
Y381789D01*
Y381730D01*
Y381672D01*
X901546Y380443D01*
X901312Y379332D01*
X900961Y378337D01*
X900552Y377518D01*
X900084Y376816D01*
X899733Y376348D01*
X899499Y376056D01*
X899382Y375939D01*
X898504Y375178D01*
X897568Y374593D01*
X896632Y374242D01*
X895696Y373950D01*
X894936Y373774D01*
X894351Y373716D01*
X894117Y373657D01*
X893766D01*
X892771Y373716D01*
X891835Y373950D01*
X891016Y374242D01*
X890373Y374535D01*
X889788Y374886D01*
X889378Y375120D01*
X889144Y375354D01*
X889027Y375412D01*
X888384Y376173D01*
X887799Y377050D01*
X887331Y378045D01*
X886980Y378981D01*
X886687Y379858D01*
X886512Y380560D01*
X886395Y380794D01*
Y381028D01*
X886336Y381145D01*
Y381204D01*
X881598Y380560D01*
X881715Y379683D01*
X881890Y378864D01*
X882417Y377343D01*
X883002Y375997D01*
X883704Y374827D01*
X883996Y374359D01*
X884347Y373950D01*
X884640Y373599D01*
X884874Y373248D01*
X885108Y373014D01*
X885283Y372838D01*
X885342Y372780D01*
X885400Y372721D01*
X886044Y372195D01*
X886746Y371727D01*
X887389Y371317D01*
X888091Y371025D01*
X889495Y370440D01*
X890841Y370089D01*
X891426Y369972D01*
X892011Y369913D01*
X892479Y369855D01*
X892947Y369796D01*
X893298Y369738D01*
X893766D01*
X894760Y369796D01*
X895755Y369913D01*
X896691Y370030D01*
X897568Y370264D01*
X898387Y370557D01*
X899148Y370849D01*
X899850Y371142D01*
X900493Y371493D01*
X901020Y371785D01*
X901546Y372078D01*
X902014Y372370D01*
X902365Y372663D01*
X902658Y372897D01*
X902833Y373014D01*
X902950Y373131D01*
X903009Y373189D01*
X903652Y373891D01*
X904237Y374593D01*
X904705Y375295D01*
X905115Y375997D01*
X905524Y376699D01*
X905817Y377460D01*
X906226Y378805D01*
X906402Y379390D01*
X906519Y379975D01*
X906577Y380443D01*
X906636Y380911D01*
X906694Y381262D01*
Y381730D01*
X906636Y383076D01*
X906402Y384304D01*
X906109Y385357D01*
X905758Y386235D01*
X905349Y386937D01*
X905056Y387463D01*
X904822Y387814D01*
X904764Y387931D01*
X904003Y388809D01*
X903126Y389511D01*
X902248Y390096D01*
X901429Y390505D01*
X900669Y390856D01*
X900084Y391032D01*
X899850Y391149D01*
X899674D01*
X899557Y391207D01*
X899499D01*
X900435Y391675D01*
X901254Y392260D01*
X901897Y392787D01*
X902482Y393313D01*
X902892Y393781D01*
X903243Y394132D01*
X903418Y394366D01*
X903477Y394483D01*
X903945Y395244D01*
X904237Y396063D01*
X904471Y396823D01*
X904647Y397525D01*
X904764Y398110D01*
X904822Y398578D01*
Y398871D01*
Y398988D01*
X904764Y399982D01*
X904588Y400860D01*
X904354Y401679D01*
X904120Y402439D01*
X903886Y403024D01*
X903652Y403492D01*
X903477Y403785D01*
X903418Y403902D01*
X902833Y404721D01*
X902190Y405481D01*
X901488Y406125D01*
X900844Y406651D01*
X900259Y407061D01*
X899791Y407353D01*
X899440Y407529D01*
X899382Y407587D01*
X899323D01*
X898329Y408055D01*
X897334Y408406D01*
X896340Y408640D01*
X895462Y408816D01*
X894702Y408933D01*
X894117Y408991D01*
D02*
G37*
G36*
X828480D02*
X827134D01*
X826315Y408874D01*
X824853Y408582D01*
X823507Y408172D01*
X822396Y407704D01*
X821518Y407178D01*
X821167Y406944D01*
X820875Y406768D01*
X820582Y406593D01*
X820407Y406476D01*
X820348Y406417D01*
X820290Y406359D01*
X819237Y405306D01*
X818418Y404136D01*
X817716Y402907D01*
X817248Y401737D01*
X816838Y400684D01*
X816721Y400216D01*
X816604Y399807D01*
X816546Y399514D01*
X816487Y399280D01*
X816429Y399105D01*
Y399046D01*
X821167Y398227D01*
X821401Y399456D01*
X821752Y400509D01*
X822103Y401386D01*
X822513Y402088D01*
X822864Y402673D01*
X823156Y403083D01*
X823390Y403317D01*
X823449Y403375D01*
X824209Y403960D01*
X824970Y404370D01*
X825730Y404721D01*
X826491Y404896D01*
X827076Y405013D01*
X827602Y405130D01*
X828070D01*
X829065Y405072D01*
X829942Y404838D01*
X830703Y404604D01*
X831346Y404253D01*
X831873Y403960D01*
X832282Y403668D01*
X832516Y403434D01*
X832575Y403375D01*
X833160Y402732D01*
X833569Y401971D01*
X833920Y401269D01*
X834096Y400626D01*
X834213Y399982D01*
X834330Y399514D01*
Y399222D01*
Y399163D01*
Y399105D01*
X834213Y397935D01*
X833920Y396940D01*
X833569Y396121D01*
X833101Y395478D01*
X832633Y394951D01*
X832282Y394542D01*
X831990Y394308D01*
X831873Y394249D01*
X830937Y393723D01*
X830001Y393372D01*
X829123Y393079D01*
X828304Y392904D01*
X827544Y392787D01*
X827017Y392728D01*
X826257D01*
X826023Y392787D01*
X825730D01*
X825204Y388633D01*
X825906Y388809D01*
X826549Y388926D01*
X827134Y388984D01*
X827602Y389043D01*
X828012Y389101D01*
X828538D01*
X829708Y388984D01*
X830703Y388750D01*
X831639Y388458D01*
X832399Y388048D01*
X833043Y387639D01*
X833511Y387346D01*
X833745Y387112D01*
X833862Y386995D01*
X834564Y386176D01*
X835090Y385299D01*
X835500Y384363D01*
X835734Y383544D01*
X835909Y382783D01*
X835968Y382198D01*
X836026Y381964D01*
Y381789D01*
Y381730D01*
Y381672D01*
X835909Y380443D01*
X835675Y379332D01*
X835324Y378337D01*
X834915Y377518D01*
X834447Y376816D01*
X834096Y376348D01*
X833862Y376056D01*
X833745Y375939D01*
X832867Y375178D01*
X831931Y374593D01*
X830995Y374242D01*
X830059Y373950D01*
X829299Y373774D01*
X828714Y373716D01*
X828480Y373657D01*
X828129D01*
X827134Y373716D01*
X826198Y373950D01*
X825379Y374242D01*
X824736Y374535D01*
X824151Y374886D01*
X823741Y375120D01*
X823507Y375354D01*
X823390Y375412D01*
X822747Y376173D01*
X822162Y377050D01*
X821694Y378045D01*
X821343Y378981D01*
X821050Y379858D01*
X820875Y380560D01*
X820758Y380794D01*
Y381028D01*
X820699Y381145D01*
Y381204D01*
X815961Y380560D01*
X816078Y379683D01*
X816253Y378864D01*
X816780Y377343D01*
X817365Y375997D01*
X818067Y374827D01*
X818359Y374359D01*
X818710Y373950D01*
X819003Y373599D01*
X819237Y373248D01*
X819471Y373014D01*
X819646Y372838D01*
X819705Y372780D01*
X819763Y372721D01*
X820407Y372195D01*
X821109Y371727D01*
X821752Y371317D01*
X822454Y371025D01*
X823858Y370440D01*
X825204Y370089D01*
X825789Y369972D01*
X826374Y369913D01*
X826842Y369855D01*
X827310Y369796D01*
X827661Y369738D01*
X828129D01*
X829123Y369796D01*
X830118Y369913D01*
X831054Y370030D01*
X831931Y370264D01*
X832750Y370557D01*
X833511Y370849D01*
X834213Y371142D01*
X834856Y371493D01*
X835383Y371785D01*
X835909Y372078D01*
X836377Y372370D01*
X836728Y372663D01*
X837021Y372897D01*
X837196Y373014D01*
X837313Y373131D01*
X837372Y373189D01*
X838015Y373891D01*
X838600Y374593D01*
X839068Y375295D01*
X839478Y375997D01*
X839887Y376699D01*
X840180Y377460D01*
X840589Y378805D01*
X840765Y379390D01*
X840882Y379975D01*
X840940Y380443D01*
X840999Y380911D01*
X841057Y381262D01*
Y381730D01*
X840999Y383076D01*
X840765Y384304D01*
X840472Y385357D01*
X840121Y386235D01*
X839712Y386937D01*
X839419Y387463D01*
X839185Y387814D01*
X839127Y387931D01*
X838366Y388809D01*
X837489Y389511D01*
X836611Y390096D01*
X835792Y390505D01*
X835032Y390856D01*
X834447Y391032D01*
X834213Y391149D01*
X834037D01*
X833920Y391207D01*
X833862D01*
X834798Y391675D01*
X835617Y392260D01*
X836260Y392787D01*
X836845Y393313D01*
X837255Y393781D01*
X837606Y394132D01*
X837781Y394366D01*
X837840Y394483D01*
X838308Y395244D01*
X838600Y396063D01*
X838834Y396823D01*
X839010Y397525D01*
X839127Y398110D01*
X839185Y398578D01*
Y398871D01*
Y398988D01*
X839127Y399982D01*
X838951Y400860D01*
X838717Y401679D01*
X838483Y402439D01*
X838249Y403024D01*
X838015Y403492D01*
X837840Y403785D01*
X837781Y403902D01*
X837196Y404721D01*
X836553Y405481D01*
X835851Y406125D01*
X835207Y406651D01*
X834622Y407061D01*
X834154Y407353D01*
X833803Y407529D01*
X833745Y407587D01*
X833686D01*
X832692Y408055D01*
X831697Y408406D01*
X830703Y408640D01*
X829825Y408816D01*
X829065Y408933D01*
X828480Y408991D01*
D02*
G37*
G36*
X878848Y408816D02*
X873700D01*
X863287Y380911D01*
X862878Y379741D01*
X862468Y378571D01*
X862117Y377518D01*
X861825Y376582D01*
X861591Y375763D01*
X861415Y375120D01*
X861357Y374886D01*
X861298Y374710D01*
X861240Y374652D01*
Y374593D01*
X860596Y376816D01*
X860245Y377869D01*
X859894Y378864D01*
X859602Y379683D01*
X859426Y380326D01*
X859309Y380560D01*
X859251Y380736D01*
X859192Y380853D01*
Y380911D01*
X849247Y408816D01*
X843690D01*
X858607Y370381D01*
X863814D01*
X878848Y408816D01*
D02*
G37*
G36*
X893736Y308582D02*
X888179D01*
X880457Y298286D01*
X879813Y297467D01*
X879228Y296706D01*
X878702Y295946D01*
X878292Y295302D01*
X877941Y294776D01*
X877649Y294366D01*
X877473Y294132D01*
X877415Y294015D01*
X877005Y294717D01*
X876596Y295419D01*
X876069Y296238D01*
X875543Y296999D01*
X875133Y297642D01*
X874724Y298169D01*
X874490Y298578D01*
X874373Y298637D01*
Y298695D01*
X867353Y308582D01*
X861327D01*
X874431Y290037D01*
X859572Y270147D01*
X865656D01*
X875367Y283427D01*
X875601Y283778D01*
X875894Y284187D01*
X876537Y285065D01*
X876830Y285533D01*
X877005Y285884D01*
X877181Y286118D01*
X877239Y286176D01*
X877824Y285299D01*
X878292Y284597D01*
X878526Y284246D01*
X878702Y284012D01*
X878760Y283895D01*
X878819Y283836D01*
X888530Y270147D01*
X894789D01*
X880340Y290271D01*
X893736Y308582D01*
D02*
G37*
G36*
X858227D02*
X827865D01*
Y304077D01*
X840501D01*
Y270147D01*
X845591D01*
Y304077D01*
X858227D01*
Y308582D01*
D02*
G37*
G36*
X895257Y208582D02*
X889700D01*
X881978Y198286D01*
X881334Y197467D01*
X880749Y196706D01*
X880223Y195946D01*
X879813Y195302D01*
X879462Y194776D01*
X879170Y194366D01*
X878994Y194132D01*
X878936Y194015D01*
X878526Y194717D01*
X878117Y195419D01*
X877590Y196238D01*
X877064Y196999D01*
X876654Y197642D01*
X876245Y198169D01*
X876011Y198578D01*
X875894Y198637D01*
Y198695D01*
X868874Y208582D01*
X862848D01*
X875952Y190037D01*
X861093Y170147D01*
X867177D01*
X876888Y183427D01*
X877122Y183778D01*
X877415Y184187D01*
X878058Y185065D01*
X878351Y185533D01*
X878526Y185884D01*
X878702Y186118D01*
X878760Y186176D01*
X879345Y185299D01*
X879813Y184597D01*
X880047Y184246D01*
X880223Y184012D01*
X880281Y183895D01*
X880340Y183836D01*
X890051Y170147D01*
X896310D01*
X881861Y190271D01*
X895257Y208582D01*
D02*
G37*
G36*
X844187D02*
X826344D01*
Y170147D01*
X831434D01*
Y187229D01*
X837986D01*
X838571Y187171D01*
X839039D01*
X839448Y187112D01*
X839741Y187054D01*
X839975D01*
X840092Y186995D01*
X840150D01*
X841028Y186703D01*
X841730Y186352D01*
X842022Y186176D01*
X842256Y186059D01*
X842373Y186001D01*
X842432Y185942D01*
X842900Y185650D01*
X843309Y185240D01*
X844187Y184421D01*
X844479Y184012D01*
X844772Y183661D01*
X844947Y183427D01*
X845006Y183368D01*
X845591Y182608D01*
X846176Y181789D01*
X846819Y180911D01*
X847404Y180034D01*
X847931Y179273D01*
X848340Y178688D01*
X848457Y178454D01*
X848574Y178279D01*
X848691Y178162D01*
Y178103D01*
X853781Y170147D01*
X860157D01*
X853488Y180560D01*
X852728Y181672D01*
X851967Y182666D01*
X851265Y183544D01*
X850622Y184304D01*
X850095Y184889D01*
X849686Y185357D01*
X849393Y185591D01*
X849276Y185708D01*
X848867Y186059D01*
X848340Y186410D01*
X847346Y187054D01*
X846936Y187288D01*
X846585Y187463D01*
X846351Y187580D01*
X846234Y187639D01*
X847229Y187814D01*
X848165Y187990D01*
X849042Y188224D01*
X849803Y188516D01*
X850563Y188809D01*
X851207Y189101D01*
X851850Y189394D01*
X852377Y189686D01*
X852845Y189979D01*
X853254Y190213D01*
X853605Y190505D01*
X853898Y190681D01*
X854073Y190915D01*
X854249Y191032D01*
X854366Y191149D01*
X854834Y191675D01*
X855243Y192260D01*
X855945Y193430D01*
X856413Y194542D01*
X856706Y195653D01*
X856940Y196589D01*
X856998Y196999D01*
Y197350D01*
X857057Y197642D01*
Y197876D01*
Y197993D01*
Y198052D01*
X856998Y199222D01*
X856823Y200275D01*
X856530Y201269D01*
X856238Y202147D01*
X855945Y202849D01*
X855653Y203375D01*
X855477Y203726D01*
X855419Y203843D01*
X854775Y204779D01*
X854073Y205540D01*
X853371Y206183D01*
X852669Y206651D01*
X852084Y207061D01*
X851616Y207353D01*
X851265Y207470D01*
X851207Y207529D01*
X851148D01*
X850622Y207704D01*
X850037Y207880D01*
X848808Y208114D01*
X847521Y208348D01*
X846293Y208465D01*
X845123Y208523D01*
X844655D01*
X844187Y208582D01*
D02*
G37*
%LPD*%
G36*
X845064Y204253D02*
X846351Y204019D01*
X847404Y203785D01*
X848282Y203434D01*
X848925Y203141D01*
X849452Y202849D01*
X849686Y202615D01*
X849803Y202556D01*
X850446Y201854D01*
X850973Y201094D01*
X851324Y200333D01*
X851558Y199631D01*
X851675Y198988D01*
X851792Y198520D01*
Y198169D01*
Y198110D01*
Y198052D01*
X851733Y197350D01*
X851616Y196706D01*
X851441Y196121D01*
X851265Y195653D01*
X851090Y195185D01*
X850914Y194893D01*
X850797Y194659D01*
X850739Y194600D01*
X850329Y194074D01*
X849861Y193606D01*
X849335Y193196D01*
X848867Y192845D01*
X848457Y192611D01*
X848106Y192436D01*
X847872Y192377D01*
X847755Y192319D01*
X846995Y192085D01*
X846117Y191909D01*
X845181Y191792D01*
X844304Y191734D01*
X843543Y191675D01*
X842900Y191617D01*
X831434D01*
Y204311D01*
X843543D01*
X845064Y204253D01*
D02*
G37*
%LPC*%
G36*
X892800Y108904D02*
X887652D01*
X877239Y80999D01*
X876830Y79829D01*
X876420Y78659D01*
X876069Y77606D01*
X875777Y76670D01*
X875543Y75851D01*
X875367Y75208D01*
X875309Y74974D01*
X875250Y74798D01*
X875192Y74740D01*
Y74681D01*
X874548Y76904D01*
X874197Y77957D01*
X873846Y78952D01*
X873554Y79771D01*
X873378Y80414D01*
X873261Y80648D01*
X873203Y80824D01*
X873144Y80941D01*
Y80999D01*
X863199Y108904D01*
X857642D01*
X872559Y70469D01*
X877766D01*
X892800Y108904D01*
D02*
G37*
G36*
X853488Y108319D02*
X834417D01*
X830673Y88604D01*
X835119Y87961D01*
X835529Y88546D01*
X835997Y89072D01*
X836465Y89540D01*
X836874Y89950D01*
X837284Y90242D01*
X837635Y90476D01*
X837869Y90593D01*
X837927Y90652D01*
X838629Y91003D01*
X839331Y91295D01*
X840033Y91471D01*
X840677Y91646D01*
X841262Y91705D01*
X841671Y91763D01*
X842081D01*
X843368Y91646D01*
X844538Y91412D01*
X845591Y91003D01*
X846410Y90593D01*
X847112Y90184D01*
X847580Y89774D01*
X847872Y89540D01*
X847989Y89423D01*
X848750Y88487D01*
X849335Y87434D01*
X849744Y86381D01*
X849978Y85387D01*
X850154Y84451D01*
X850212Y84041D01*
Y83690D01*
X850271Y83456D01*
Y83222D01*
Y83105D01*
Y83047D01*
X850154Y81526D01*
X849920Y80180D01*
X849510Y79010D01*
X849101Y78016D01*
X848691Y77255D01*
X848282Y76670D01*
X848048Y76319D01*
X847931Y76261D01*
Y76202D01*
X847463Y75734D01*
X846995Y75383D01*
X846059Y74740D01*
X845064Y74330D01*
X844187Y73979D01*
X843368Y73804D01*
X842724Y73745D01*
X842490Y73687D01*
X842139D01*
X841145Y73745D01*
X840209Y73979D01*
X839390Y74272D01*
X838688Y74564D01*
X838103Y74915D01*
X837693Y75149D01*
X837459Y75383D01*
X837342Y75442D01*
X836640Y76202D01*
X836114Y77080D01*
X835646Y77957D01*
X835353Y78835D01*
X835119Y79654D01*
X834944Y80297D01*
X834885Y80531D01*
X834827Y80707D01*
Y80824D01*
Y80882D01*
X829854Y80531D01*
X829971Y79654D01*
X830147Y78776D01*
X830615Y77255D01*
X831258Y75910D01*
X831902Y74798D01*
X832253Y74330D01*
X832545Y73921D01*
X832838Y73570D01*
X833072Y73277D01*
X833306Y73043D01*
X833481Y72868D01*
X833540Y72809D01*
X833598Y72751D01*
X834242Y72224D01*
X834944Y71815D01*
X835646Y71405D01*
X836348Y71054D01*
X837752Y70528D01*
X839097Y70177D01*
X839741Y70060D01*
X840326Y70001D01*
X840852Y69943D01*
X841262Y69884D01*
X841613Y69826D01*
X842139D01*
X843309Y69884D01*
X844421Y70001D01*
X845415Y70235D01*
X846410Y70528D01*
X847287Y70879D01*
X848165Y71288D01*
X848925Y71698D01*
X849569Y72166D01*
X850212Y72575D01*
X850739Y72985D01*
X851207Y73394D01*
X851558Y73745D01*
X851850Y74038D01*
X852084Y74272D01*
X852201Y74389D01*
X852260Y74447D01*
X852786Y75149D01*
X853254Y75910D01*
X853664Y76670D01*
X854015Y77489D01*
X854541Y78952D01*
X854951Y80356D01*
X855068Y80999D01*
X855126Y81584D01*
X855185Y82111D01*
X855243Y82579D01*
X855302Y82930D01*
Y83456D01*
X855243Y84451D01*
X855126Y85445D01*
X854951Y86323D01*
X854775Y87200D01*
X854483Y87961D01*
X854190Y88721D01*
X853898Y89365D01*
X853547Y90008D01*
X853196Y90535D01*
X852903Y91003D01*
X852611Y91412D01*
X852318Y91763D01*
X852143Y92056D01*
X851967Y92231D01*
X851850Y92348D01*
X851792Y92407D01*
X851148Y93050D01*
X850446Y93577D01*
X849744Y94045D01*
X848984Y94454D01*
X848282Y94805D01*
X847580Y95039D01*
X846234Y95507D01*
X845649Y95624D01*
X845064Y95741D01*
X844596Y95800D01*
X844128Y95858D01*
X843777Y95917D01*
X843309D01*
X841905Y95800D01*
X840560Y95507D01*
X839331Y95156D01*
X838278Y94688D01*
X837342Y94220D01*
X836991Y94045D01*
X836640Y93869D01*
X836406Y93694D01*
X836231Y93577D01*
X836114Y93518D01*
X836055Y93460D01*
X838161Y103814D01*
X853488D01*
Y108319D01*
D02*
G37*
G36*
X229935Y482546D02*
X227595D01*
Y470844D01*
X230743D01*
X231065Y470871D01*
X231388D01*
X231765Y470925D01*
X232088Y470952D01*
X232357Y471005D01*
X232383D01*
X232518Y471059D01*
X232679Y471113D01*
X232868Y471167D01*
X233352Y471409D01*
X233594Y471543D01*
X233809Y471732D01*
X233836Y471759D01*
X233917Y471839D01*
X233997Y471947D01*
X234132Y472135D01*
X234293Y472377D01*
X234428Y472673D01*
X234589Y473023D01*
X234724Y473426D01*
Y473453D01*
X234751Y473480D01*
Y473561D01*
X234778Y473642D01*
X234831Y473911D01*
X234912Y474287D01*
X234993Y474745D01*
X235047Y475310D01*
X235073Y475955D01*
X235100Y476681D01*
Y476708D01*
Y476762D01*
Y476870D01*
Y477031D01*
Y477192D01*
X235073Y477381D01*
X235047Y477838D01*
X235020Y478349D01*
X234939Y478860D01*
X234858Y479371D01*
X234724Y479802D01*
X234697Y479856D01*
X234670Y479990D01*
X234589Y480178D01*
X234482Y480421D01*
X234320Y480716D01*
X234159Y480985D01*
X233970Y481281D01*
X233728Y481523D01*
X233702Y481550D01*
X233621Y481631D01*
X233459Y481739D01*
X233271Y481873D01*
X233056Y482008D01*
X232760Y482142D01*
X232437Y482250D01*
X232088Y482357D01*
X232061D01*
X231926Y482384D01*
X231738Y482411D01*
X231442Y482465D01*
X231254D01*
X231038Y482492D01*
X230823D01*
X230554Y482519D01*
X230258D01*
X229935Y482546D01*
D02*
G37*
G36*
X203829Y385766D02*
X201489D01*
Y374065D01*
X204636D01*
X204959Y374091D01*
X205282D01*
X205658Y374145D01*
X205981Y374172D01*
X206250Y374226D01*
X206277D01*
X206411Y374280D01*
X206573Y374334D01*
X206761Y374387D01*
X207245Y374630D01*
X207487Y374764D01*
X207703Y374952D01*
X207730Y374979D01*
X207810Y375060D01*
X207891Y375168D01*
X208025Y375356D01*
X208187Y375598D01*
X208321Y375894D01*
X208483Y376243D01*
X208617Y376647D01*
Y376674D01*
X208644Y376701D01*
Y376781D01*
X208671Y376862D01*
X208725Y377131D01*
X208805Y377508D01*
X208886Y377965D01*
X208940Y378530D01*
X208967Y379176D01*
X208994Y379902D01*
Y379929D01*
Y379983D01*
Y380090D01*
Y380252D01*
Y380413D01*
X208967Y380601D01*
X208940Y381059D01*
X208913Y381570D01*
X208832Y382081D01*
X208752Y382592D01*
X208617Y383022D01*
X208590Y383076D01*
X208563Y383211D01*
X208483Y383399D01*
X208375Y383641D01*
X208214Y383937D01*
X208052Y384206D01*
X207864Y384502D01*
X207622Y384744D01*
X207595Y384771D01*
X207514Y384851D01*
X207353Y384959D01*
X207165Y385094D01*
X206949Y385228D01*
X206654Y385363D01*
X206331Y385470D01*
X205981Y385578D01*
X205954D01*
X205820Y385605D01*
X205631Y385632D01*
X205335Y385685D01*
X205147D01*
X204932Y385712D01*
X204717D01*
X204448Y385739D01*
X204152D01*
X203829Y385766D01*
D02*
G37*
G36*
X206506Y305058D02*
X204165D01*
Y293356D01*
X207313D01*
X207635Y293383D01*
X207958D01*
X208335Y293437D01*
X208658Y293464D01*
X208927Y293517D01*
X208953D01*
X209088Y293571D01*
X209249Y293625D01*
X209438Y293679D01*
X209922Y293921D01*
X210164Y294055D01*
X210379Y294244D01*
X210406Y294271D01*
X210487Y294351D01*
X210567Y294459D01*
X210702Y294647D01*
X210863Y294889D01*
X210998Y295185D01*
X211159Y295535D01*
X211294Y295938D01*
Y295965D01*
X211321Y295992D01*
Y296073D01*
X211348Y296154D01*
X211401Y296423D01*
X211482Y296799D01*
X211563Y297257D01*
X211617Y297821D01*
X211643Y298467D01*
X211670Y299193D01*
Y299220D01*
Y299274D01*
Y299382D01*
Y299543D01*
Y299704D01*
X211643Y299893D01*
X211617Y300350D01*
X211590Y300861D01*
X211509Y301372D01*
X211428Y301883D01*
X211294Y302314D01*
X211267Y302368D01*
X211240Y302502D01*
X211159Y302690D01*
X211052Y302932D01*
X210890Y303228D01*
X210729Y303497D01*
X210541Y303793D01*
X210298Y304035D01*
X210272Y304062D01*
X210191Y304143D01*
X210030Y304250D01*
X209841Y304385D01*
X209626Y304519D01*
X209330Y304654D01*
X209007Y304762D01*
X208658Y304869D01*
X208631D01*
X208496Y304896D01*
X208308Y304923D01*
X208012Y304977D01*
X207824D01*
X207608Y305004D01*
X207393D01*
X207124Y305031D01*
X206828D01*
X206506Y305058D01*
D02*
G37*
%LPD*%
D32*
X472441Y348425D02*
G03*
X472441Y348425I-4921J0D01*
G01*
X278543Y161417D02*
G03*
X278543Y161417I-4921J0D01*
G01*
X675197Y491142D02*
G03*
X675197Y491142I-4921J0D01*
G01*
D33*
X502953Y369094D02*
Y379921D01*
Y218504D02*
Y229331D01*
X653543Y218504D02*
X664370D01*
X502953D02*
X513779D01*
X664370Y369094D02*
Y379921D01*
Y218504D02*
Y229331D01*
X653543Y379921D02*
X664370D01*
X502953D02*
X513779D01*
X-590551Y535433D02*
X37008D01*
X-590551Y62992D02*
X37008D01*
X149606Y119016D02*
Y479409D01*
X-590551Y62992D02*
Y535433D01*
X590551Y502953D02*
Y526575D01*
X535433Y543307D02*
Y571850D01*
X570866D01*
X535433Y457677D02*
Y486221D01*
Y457677D02*
X570866D01*
X332677Y470472D02*
X411417D01*
X332677Y549212D02*
X411417D01*
X1174252Y39365D02*
Y539365D01*
X1094252Y39365D02*
X1174252D01*
X1034252Y479365D02*
X1074252D01*
X1034252Y499365D02*
X1074252D01*
X1174252D02*
X1194252D01*
Y479365D02*
Y499365D01*
X1174252Y479365D02*
X1194252D01*
X934252Y545664D02*
X1034252D01*
Y33065D02*
Y545664D01*
X934252Y33065D02*
X1034252D01*
X934252D02*
Y545664D01*
X1034252Y179365D02*
X1074252D01*
X1034252Y99365D02*
X1074252D01*
X1034252Y79365D02*
X1074252D01*
X1094252Y519365D02*
Y539365D01*
X1174252D01*
X1074252Y59365D02*
X1094252D01*
Y39365D02*
Y59365D01*
X1074252Y519365D02*
X1094252D01*
X1034252Y199365D02*
X1074252D01*
Y59365D02*
Y519365D01*
X1174252Y199365D02*
X1194252D01*
Y179365D02*
Y199365D01*
X1174252Y179365D02*
X1194252D01*
X1174252Y99365D02*
X1194252D01*
Y79365D02*
Y99365D01*
X1174252Y79365D02*
X1194252D01*
X1034252Y279365D02*
X1074252D01*
X1034252Y299365D02*
X1074252D01*
X1174252D02*
X1194252D01*
Y279365D02*
Y299365D01*
X1174252Y279365D02*
X1194252D01*
X1034252Y379365D02*
X1074252D01*
X1034252Y399365D02*
X1074252D01*
X1174252D02*
X1194252D01*
Y379365D02*
Y399365D01*
X1174252Y379365D02*
X1194252D01*
X682087Y513779D02*
Y533465D01*
X691929D01*
X749016Y513779D02*
Y533465D01*
X739173D02*
X749016D01*
D34*
X568002Y74606D02*
X597530D01*
Y139567D01*
X568002D02*
X597530D01*
X568002Y74606D02*
Y139567D01*
X526752Y74606D02*
X556280D01*
Y139567D01*
X526752D02*
X556280D01*
X526752Y74606D02*
Y139567D01*
X650502Y74606D02*
X680030D01*
Y139567D01*
X650502D02*
X680030D01*
X650502Y74606D02*
Y139567D01*
X787008Y124016D02*
Y153543D01*
X722047D02*
X787008D01*
X722047Y124016D02*
Y153543D01*
Y124016D02*
X787008D01*
Y224410D02*
Y253937D01*
X722047D02*
X787008D01*
X722047Y224410D02*
Y253937D01*
Y224410D02*
X787008D01*
Y323819D02*
Y353347D01*
X722047D02*
X787008D01*
X722047Y323819D02*
Y353347D01*
Y323819D02*
X787008D01*
X787402Y30512D02*
Y60039D01*
X722441D02*
X787402D01*
X722441Y30512D02*
Y60039D01*
Y30512D02*
X787402D01*
X787008Y422244D02*
Y451772D01*
X722047D02*
X787008D01*
X722047Y422244D02*
Y451772D01*
Y422244D02*
X787008D01*
X609252Y139567D02*
X638779D01*
X609252Y74606D02*
Y139567D01*
Y74606D02*
X638779D01*
Y139567D01*
X828847Y430118D02*
X893808D01*
X828847D02*
Y459646D01*
X893808D01*
Y430118D02*
Y459646D01*
X828847Y123031D02*
X893808D01*
X828847D02*
Y152559D01*
X893808D01*
Y123031D02*
Y152559D01*
X442913Y193898D02*
Y258858D01*
X472441D01*
Y193898D02*
Y258858D01*
X442913Y193898D02*
X472441D01*
X485502Y74606D02*
Y139567D01*
X515030D01*
Y74606D02*
Y139567D01*
X485502Y74606D02*
X515030D01*
D35*
X705905Y194365D02*
X710905D01*
X705905D02*
Y209365D01*
X710905D01*
X705905Y184365D02*
X710905D01*
X705905Y169365D02*
Y184365D01*
Y169365D02*
X710905D01*
X800905Y204365D02*
Y209365D01*
X710905D02*
X800905D01*
X710905Y194365D02*
Y209365D01*
Y169365D02*
Y184365D01*
Y169365D02*
X800905D01*
Y174365D01*
X755905Y169365D02*
Y209365D01*
Y269365D02*
Y309365D01*
X800905Y269365D02*
Y274365D01*
X710905Y269365D02*
X800905D01*
X710905D02*
Y284365D01*
Y294365D02*
Y309365D01*
X800905D01*
Y304365D02*
Y309365D01*
X705905Y269365D02*
X710905D01*
X705905D02*
Y284365D01*
X710905D01*
X705905Y309365D02*
X710905D01*
X705905Y294365D02*
Y309365D01*
Y294365D02*
X710905D01*
X705905Y394365D02*
X710905D01*
X705905D02*
Y409365D01*
X710905D01*
X705905Y384365D02*
X710905D01*
X705905Y369365D02*
Y384365D01*
Y369365D02*
X710905D01*
X800905Y404365D02*
Y409365D01*
X710905D02*
X800905D01*
X710905Y394365D02*
Y409365D01*
Y369365D02*
Y384365D01*
Y369365D02*
X800905D01*
Y374365D01*
X755905Y369365D02*
Y409365D01*
X705905Y94365D02*
X710905D01*
X705905D02*
Y109365D01*
X710905D01*
X705905Y84365D02*
X710905D01*
X705905Y69365D02*
Y84365D01*
Y69365D02*
X710905D01*
X800905Y104365D02*
Y109365D01*
X710905D02*
X800905D01*
X710905Y94365D02*
Y109365D01*
Y69365D02*
Y84365D01*
Y69365D02*
X800905D01*
Y74365D01*
X755905Y69365D02*
Y109365D01*
X315945Y315945D02*
Y320866D01*
X331693Y315945D02*
Y320866D01*
X282480Y383858D02*
X287402D01*
X282480Y320866D02*
Y383858D01*
Y320866D02*
X298228D01*
X282480Y315945D02*
X298228D01*
Y320866D01*
X282480Y315945D02*
Y320866D01*
X326772Y383858D02*
X331693D01*
Y320866D02*
Y383858D01*
X315945Y320866D02*
X331693D01*
X315945Y315945D02*
X331693D01*
X298228Y277559D02*
Y282480D01*
X282480Y277559D02*
Y282480D01*
X326772Y214567D02*
X331693D01*
Y277559D01*
X315945D02*
X331693D01*
X315945Y282480D02*
X331693D01*
X315945Y277559D02*
Y282480D01*
X331693Y277559D02*
Y282480D01*
X282480Y214567D02*
X287402D01*
X282480D02*
Y277559D01*
X298228D01*
X282480Y282480D02*
X298228D01*
Y120079D02*
Y125000D01*
X282480Y120079D02*
Y125000D01*
X326772Y57087D02*
X331693D01*
Y120079D01*
X315945D02*
X331693D01*
X315945Y125000D02*
X331693D01*
X315945Y120079D02*
Y125000D01*
X331693Y120079D02*
Y125000D01*
X282480Y57087D02*
X287402D01*
X282480D02*
Y120079D01*
X298228D01*
X282480Y125000D02*
X298228D01*
D36*
X355315Y190157D02*
X394685D01*
X355315Y209843D02*
X394685D01*
X421260Y135039D02*
X460630D01*
X421260Y115354D02*
X460630D01*
D37*
X40066Y27395D02*
X36733Y30727D01*
X30069D01*
X26737Y27395D01*
Y14066D01*
X30069Y10734D01*
X36733D01*
X40066Y14066D01*
X46730Y10734D02*
Y30727D01*
X56727D01*
X60059Y27395D01*
Y20731D01*
X56727Y17398D01*
X46730D01*
X80053Y10734D02*
X66724D01*
X80053Y24063D01*
Y27395D01*
X76720Y30727D01*
X70056D01*
X66724Y27395D01*
X86717Y10734D02*
X93382D01*
X90049D01*
Y30727D01*
X86717Y27395D01*
X103378D02*
X106711Y30727D01*
X113375D01*
X116707Y27395D01*
Y14066D01*
X113375Y10734D01*
X106711D01*
X103378Y14066D01*
Y27395D01*
X136701Y10734D02*
X123372D01*
X136701Y24063D01*
Y27395D01*
X133369Y30727D01*
X126704D01*
X123372Y27395D01*
X143365Y10734D02*
Y30727D01*
X156694Y10734D01*
Y30727D01*
X183352Y20731D02*
X196681D01*
X223339Y30727D02*
Y14066D01*
X226672Y10734D01*
X233336D01*
X236668Y14066D01*
Y30727D01*
X256662Y27395D02*
X253330Y30727D01*
X246665D01*
X243333Y27395D01*
Y24063D01*
X246665Y20731D01*
X253330D01*
X256662Y17398D01*
Y14066D01*
X253330Y10734D01*
X246665D01*
X243333Y14066D01*
X263326Y30727D02*
Y10734D01*
X273323D01*
X276655Y14066D01*
Y17398D01*
X273323Y20731D01*
X263326D01*
X273323D01*
X276655Y24063D01*
Y27395D01*
X273323Y30727D01*
X263326D01*
X283320Y20731D02*
X296649D01*
X303313Y30727D02*
Y14066D01*
X306646Y10734D01*
X313310D01*
X316642Y14066D01*
Y30727D01*
X323307Y10734D02*
Y24063D01*
X329971Y30727D01*
X336636Y24063D01*
Y10734D01*
Y20731D01*
X323307D01*
X343300Y10734D02*
Y30727D01*
X353297D01*
X356629Y27395D01*
Y20731D01*
X353297Y17398D01*
X343300D01*
X349965D02*
X356629Y10734D01*
X363294Y30727D02*
X376623D01*
X369958D01*
Y10734D01*
X416610Y27395D02*
X413278Y30727D01*
X406613D01*
X403281Y27395D01*
Y14066D01*
X406613Y10734D01*
X413278D01*
X416610Y14066D01*
X433271Y30727D02*
X426607D01*
X423274Y27395D01*
Y14066D01*
X426607Y10734D01*
X433271D01*
X436603Y14066D01*
Y27395D01*
X433271Y30727D01*
X443268Y10734D02*
Y30727D01*
X456597Y10734D01*
Y30727D01*
X463261D02*
Y17398D01*
X469926Y10734D01*
X476590Y17398D01*
Y30727D01*
X496584D02*
X483255D01*
Y10734D01*
X496584D01*
X483255Y20731D02*
X489919D01*
X503248Y10734D02*
Y30727D01*
X513245D01*
X516577Y27395D01*
Y20731D01*
X513245Y17398D01*
X503248D01*
X509913D02*
X516577Y10734D01*
X523242Y30727D02*
X536571D01*
X529906D01*
Y10734D01*
X556564Y30727D02*
X543235D01*
Y10734D01*
X556564D01*
X543235Y20731D02*
X549900D01*
X563229Y10734D02*
Y30727D01*
X573226D01*
X576558Y27395D01*
Y20731D01*
X573226Y17398D01*
X563229D01*
X569893D02*
X576558Y10734D01*
D38*
X504767Y572458D02*
Y559962D01*
X507266Y557463D01*
X512265D01*
X514764Y559962D01*
Y572458D01*
X519762Y557463D02*
X524761D01*
X522261D01*
Y572458D01*
X519762Y569959D01*
X469488Y501061D02*
X466989Y503561D01*
X461991D01*
X459491Y501061D01*
Y498562D01*
X461991Y496063D01*
X466989D01*
X469488Y493564D01*
Y491065D01*
X466989Y488565D01*
X461991D01*
X459491Y491065D01*
X474487Y488565D02*
X479485D01*
X476986D01*
Y503561D01*
X474487Y501061D01*
X571165Y39353D02*
Y54349D01*
X578663D01*
X581162Y51849D01*
Y46851D01*
X578663Y44352D01*
X571165D01*
X576164D02*
X581162Y39353D01*
X586161Y41852D02*
X588660Y39353D01*
X593658D01*
X596157Y41852D01*
Y51849D01*
X593658Y54349D01*
X588660D01*
X586161Y51849D01*
Y49350D01*
X588660Y46851D01*
X596157D01*
X528045Y39353D02*
Y54349D01*
X535543D01*
X538042Y51849D01*
Y46851D01*
X535543Y44352D01*
X528045D01*
X533043D02*
X538042Y39353D01*
X543040Y51849D02*
X545539Y54349D01*
X550538D01*
X553037Y51849D01*
Y49350D01*
X550538Y46851D01*
X553037Y44352D01*
Y41852D01*
X550538Y39353D01*
X545539D01*
X543040Y41852D01*
Y44352D01*
X545539Y46851D01*
X543040Y49350D01*
Y51849D01*
X545539Y46851D02*
X550538D01*
X654827Y39353D02*
Y54349D01*
X662324D01*
X664824Y51849D01*
Y46851D01*
X662324Y44352D01*
X654827D01*
X659825D02*
X664824Y39353D01*
X669822Y54349D02*
X679819D01*
Y51849D01*
X669822Y41852D01*
Y39353D01*
X796636Y151275D02*
X811631D01*
Y143778D01*
X809132Y141279D01*
X804134D01*
X801635Y143778D01*
Y151275D01*
Y146277D02*
X796636Y141279D01*
X811631Y126283D02*
X809132Y131282D01*
X804134Y136280D01*
X799135D01*
X796636Y133781D01*
Y128782D01*
X799135Y126283D01*
X801635D01*
X804134Y128782D01*
Y136280D01*
X796636Y253637D02*
X811631D01*
Y246140D01*
X809132Y243641D01*
X804134D01*
X801635Y246140D01*
Y253637D01*
Y248639D02*
X796636Y243641D01*
X811631Y228645D02*
Y238642D01*
X804134D01*
X806633Y233644D01*
Y231145D01*
X804134Y228645D01*
X799135D01*
X796636Y231145D01*
Y236143D01*
X799135Y238642D01*
X796636Y352063D02*
X811631D01*
Y344565D01*
X809132Y342066D01*
X804134D01*
X801635Y344565D01*
Y352063D01*
Y347064D02*
X796636Y342066D01*
Y329570D02*
X811631D01*
X804134Y337067D01*
Y327071D01*
X797030Y55803D02*
X812025D01*
Y48305D01*
X809526Y45806D01*
X804528D01*
X802029Y48305D01*
Y55803D01*
Y50805D02*
X797030Y45806D01*
X809526Y40808D02*
X812025Y38309D01*
Y33310D01*
X809526Y30811D01*
X807027D01*
X804528Y33310D01*
Y35809D01*
Y33310D01*
X802029Y30811D01*
X799529D01*
X797030Y33310D01*
Y38309D01*
X799529Y40808D01*
X796636Y451472D02*
X811632D01*
Y443975D01*
X809132Y441476D01*
X804134D01*
X801635Y443975D01*
Y451472D01*
Y446474D02*
X796636Y441476D01*
Y426480D02*
Y436477D01*
X806633Y426480D01*
X809132D01*
X811632Y428979D01*
Y433978D01*
X809132Y436477D01*
X615190Y39353D02*
Y54349D01*
X622688D01*
X625187Y51849D01*
Y46851D01*
X622688Y44352D01*
X615190D01*
X620188D02*
X625187Y39353D01*
X630185D02*
X635184D01*
X632684D01*
Y54349D01*
X630185Y51849D01*
X1139233Y573442D02*
X1134235D01*
X1136734D01*
Y560947D01*
X1134235Y558447D01*
X1131736D01*
X1129236Y560947D01*
X1154228Y558447D02*
X1144232D01*
X1154228Y568444D01*
Y570943D01*
X1151729Y573442D01*
X1146731D01*
X1144232Y570943D01*
X22638Y573442D02*
X17639D01*
X20139D01*
Y560947D01*
X17639Y558447D01*
X15140D01*
X12641Y560947D01*
X27636Y558447D02*
X32635D01*
X30135D01*
Y573442D01*
X27636Y570943D01*
X518204Y418915D02*
X523202D01*
X520703D01*
Y403920D01*
X518204D01*
X523202D01*
X540697Y416416D02*
X538198Y418915D01*
X533199D01*
X530700Y416416D01*
Y406419D01*
X533199Y403920D01*
X538198D01*
X540697Y406419D01*
X545695Y403920D02*
X550694D01*
X548194D01*
Y418915D01*
X545695Y416416D01*
X681479Y169591D02*
X696474D01*
Y177088D01*
X693975Y179587D01*
X683978D01*
X681479Y177088D01*
Y169591D01*
X683978Y184586D02*
X681479Y187085D01*
Y192083D01*
X683978Y194583D01*
X686477D01*
X688976Y192083D01*
X691476Y194583D01*
X693975D01*
X696474Y192083D01*
Y187085D01*
X693975Y184586D01*
X691476D01*
X688976Y187085D01*
X686477Y184586D01*
X683978D01*
X688976Y187085D02*
Y192083D01*
X823443Y303834D02*
X808447D01*
Y296337D01*
X810947Y293838D01*
X820943D01*
X823443Y296337D01*
Y303834D01*
Y288839D02*
Y278842D01*
X820943D01*
X810947Y288839D01*
X808447D01*
X681479Y376284D02*
X696474D01*
Y383781D01*
X693975Y386280D01*
X683978D01*
X681479Y383781D01*
Y376284D01*
Y401276D02*
X683978Y396277D01*
X688976Y391279D01*
X693975D01*
X696474Y393778D01*
Y398776D01*
X693975Y401276D01*
X691476D01*
X688976Y398776D01*
Y391279D01*
X823442Y101079D02*
X808447D01*
Y93581D01*
X810947Y91082D01*
X820943D01*
X823442Y93581D01*
Y101079D01*
Y76087D02*
Y86083D01*
X815945D01*
X818444Y81085D01*
Y78586D01*
X815945Y76087D01*
X810947D01*
X808447Y78586D01*
Y83584D01*
X810947Y86083D01*
X294591Y409072D02*
Y394077D01*
X302088D01*
X304587Y396576D01*
Y406573D01*
X302088Y409072D01*
X294591D01*
X317083Y394077D02*
Y409072D01*
X309586Y401575D01*
X319583D01*
X295575Y200411D02*
Y185416D01*
X303072D01*
X305572Y187915D01*
Y197912D01*
X303072Y200411D01*
X295575D01*
X310570Y197912D02*
X313069Y200411D01*
X318068D01*
X320567Y197912D01*
Y195413D01*
X318068Y192913D01*
X315568D01*
X318068D01*
X320567Y190414D01*
Y187915D01*
X318068Y185416D01*
X313069D01*
X310570Y187915D01*
X295575Y156120D02*
Y141124D01*
X303072D01*
X305572Y143624D01*
Y153620D01*
X303072Y156120D01*
X295575D01*
X320567Y141124D02*
X310570D01*
X320567Y151121D01*
Y153620D01*
X318068Y156120D01*
X313069D01*
X310570Y153620D01*
X672090Y559663D02*
Y544668D01*
X679587D01*
X682087Y547167D01*
Y557164D01*
X679587Y559663D01*
X672090D01*
X687085Y544668D02*
X692083D01*
X689584D01*
Y559663D01*
X687085Y557164D01*
X914447Y446397D02*
X916946Y448896D01*
Y453894D01*
X914447Y456394D01*
X904450D01*
X901951Y453894D01*
Y448896D01*
X904450Y446397D01*
X916946Y431402D02*
X914447Y436400D01*
X909449Y441398D01*
X904450D01*
X901951Y438899D01*
Y433901D01*
X904450Y431402D01*
X906950D01*
X909449Y433901D01*
Y441398D01*
X913463Y140294D02*
X915962Y142794D01*
Y147792D01*
X913463Y150291D01*
X903466D01*
X900967Y147792D01*
Y142794D01*
X903466Y140294D01*
X915962Y125299D02*
Y135296D01*
X908465D01*
X910964Y130298D01*
Y127798D01*
X908465Y125299D01*
X903466D01*
X900967Y127798D01*
Y132797D01*
X903466Y135296D01*
X454194Y284526D02*
X451695Y287025D01*
X446696D01*
X444197Y284526D01*
Y274529D01*
X446696Y272030D01*
X451695D01*
X454194Y274529D01*
X466690Y272030D02*
Y287025D01*
X459192Y279528D01*
X469189D01*
X496703Y51849D02*
X494204Y54349D01*
X489206D01*
X486707Y51849D01*
Y41852D01*
X489206Y39353D01*
X494204D01*
X496703Y41852D01*
X501702Y51849D02*
X504201Y54349D01*
X509199D01*
X511699Y51849D01*
Y49350D01*
X509199Y46851D01*
X506700D01*
X509199D01*
X511699Y44352D01*
Y41852D01*
X509199Y39353D01*
X504201D01*
X501702Y41852D01*
X373485Y278620D02*
X370986Y281120D01*
X365988D01*
X363488Y278620D01*
Y268624D01*
X365988Y266124D01*
X370986D01*
X373485Y268624D01*
X388480Y266124D02*
X378483D01*
X388480Y276121D01*
Y278620D01*
X385981Y281120D01*
X380983D01*
X378483Y278620D01*
X440945Y51849D02*
X438446Y54349D01*
X433447D01*
X430948Y51849D01*
Y41852D01*
X433447Y39353D01*
X438446D01*
X440945Y41852D01*
X445943Y39353D02*
X450942D01*
X448442D01*
Y54349D01*
X445943Y51849D01*
%TF.MD5,6fb9c295fcab39698cfd3dff03cbae86*%
M02*
