%TF.GenerationSoftware,Altium Limited,Altium Designer,24.7.2 (38)*%
G04 Layer_Physical_Order=1*
G04 Layer_Color=255*
%FSLAX26Y26*%
%MOIN*%
%TF.SameCoordinates,5A157747-18B5-4676-A4C7-82BAAE217A37*%
%TF.FilePolarity,Positive*%
%TF.FileFunction,Copper,L1,Top,Signal*%
%TF.Part,Single*%
G01*
G75*
%TA.AperFunction,SMDPad,CuDef*%
%ADD10C,0.090354*%
%TA.AperFunction,BGAPad,CuDef*%
%ADD11C,0.010630*%
%TA.AperFunction,ConnectorPad*%
%ADD12R,0.078740X0.047244*%
%ADD13R,0.035433X0.031496*%
%TA.AperFunction,SMDPad,CuDef*%
%ADD14R,0.021654X0.078740*%
%ADD15R,0.024409X0.022441*%
%ADD16R,0.022441X0.024409*%
%ADD17R,0.029528X0.023622*%
%ADD18R,0.027559X0.015748*%
%ADD19R,0.015748X0.020079*%
%ADD20R,0.057087X0.039370*%
%TA.AperFunction,Conductor*%
%ADD21C,0.010000*%
%ADD22C,0.027559*%
%ADD23C,0.015748*%
%ADD24C,0.011811*%
%ADD25C,0.019685*%
%ADD26C,0.039370*%
%ADD27C,0.009437*%
%TA.AperFunction,ComponentPad*%
%ADD28O,0.118110X0.059055*%
%ADD29C,0.019685*%
%ADD30C,0.078740*%
%TA.AperFunction,ViaPad*%
%ADD31C,0.015748*%
G36*
X581739Y574074D02*
X580765Y572913D01*
X579646D01*
Y562600D01*
X579109Y561797D01*
X577194Y552165D01*
X579109Y542534D01*
X579646Y541731D01*
Y531417D01*
X588982D01*
X592731Y528913D01*
X602362Y526997D01*
X695284D01*
X697754Y524526D01*
X705920Y519070D01*
X715551Y517154D01*
X726192D01*
X726843Y516181D01*
X722362Y506181D01*
X722362D01*
Y487541D01*
X712362Y482301D01*
X708936Y484672D01*
Y488268D01*
X708740Y489253D01*
Y506181D01*
X682992D01*
Y490522D01*
X675107Y482637D01*
X625079D01*
Y498110D01*
X579646D01*
Y456614D01*
X570275Y455094D01*
X541422D01*
X538755Y457760D01*
Y494016D01*
X546338D01*
Y535512D01*
X503412Y535512D01*
X500155Y536317D01*
X495757Y541026D01*
X493798Y544687D01*
X492213Y547647D01*
X490861Y548999D01*
X488592Y551268D01*
X483860Y553228D01*
X478738D01*
X474007Y551268D01*
X473289Y550550D01*
X451850D01*
Y554212D01*
X420197D01*
Y465472D01*
X451850D01*
Y530158D01*
X473289D01*
X474007Y529440D01*
X478738Y527480D01*
X483860D01*
X488592Y529440D01*
X490905Y531754D01*
X497083Y530611D01*
X500732Y528776D01*
X500905Y526733D01*
X500906Y525830D01*
Y494016D01*
X508489D01*
Y451492D01*
X508489Y451492D01*
X509641Y445701D01*
X512921Y440791D01*
X524452Y429260D01*
X524452Y429260D01*
X529362Y425979D01*
X535153Y424827D01*
X551592D01*
X559961Y418899D01*
Y413778D01*
X561921Y409046D01*
X563599Y407367D01*
X561207Y401160D01*
X559014Y398128D01*
X548228D01*
X544402Y396543D01*
X544181Y396543D01*
X540354Y398128D01*
X528543D01*
X524716Y396543D01*
X523131Y392716D01*
Y368810D01*
X520242Y362632D01*
X514064Y359743D01*
X490158D01*
X486331Y358158D01*
X484745Y354331D01*
Y342520D01*
X486330Y338693D01*
X486331Y338473D01*
X484745Y334646D01*
Y322835D01*
X478527Y318210D01*
X478527D01*
X475312Y316062D01*
X475286Y316036D01*
X402360D01*
X400829Y316340D01*
X327391D01*
X325866Y325709D01*
X325866D01*
Y348268D01*
X330866D01*
Y361142D01*
X307087D01*
X283307D01*
Y348492D01*
X256969D01*
Y367205D01*
X168228D01*
Y309961D01*
X256969D01*
Y328674D01*
X288307D01*
Y325709D01*
X297178D01*
Y311960D01*
X297932Y308168D01*
X300080Y304953D01*
X305411Y299213D01*
X300080Y293472D01*
X297932Y290258D01*
X297178Y286466D01*
Y272716D01*
X288307D01*
Y269752D01*
X256969D01*
Y288464D01*
X168228D01*
Y231220D01*
X256969D01*
Y249934D01*
X283307D01*
Y237284D01*
X307087D01*
X330866D01*
Y250157D01*
X325866D01*
Y272716D01*
X325866D01*
X327391Y282085D01*
X393623D01*
X395154Y281781D01*
X468762D01*
X469874Y280444D01*
X465185Y270444D01*
X432284D01*
X422652Y268528D01*
X414487Y263072D01*
X413984Y262570D01*
X375000D01*
X372569Y262087D01*
X341457D01*
Y212716D01*
X372569D01*
X375000Y212233D01*
X424409D01*
X425472Y212444D01*
X435473Y204238D01*
Y192283D01*
X380000D01*
Y162598D01*
Y132913D01*
X435945D01*
Y162598D01*
X440945D01*
Y167598D01*
X479488D01*
Y186260D01*
X479882D01*
Y202480D01*
X457677D01*
Y212480D01*
X479882D01*
Y220107D01*
X496654D01*
X506285Y222023D01*
X513131Y226597D01*
X517972Y225263D01*
X523131Y222017D01*
Y205709D01*
X523330Y205230D01*
Y193424D01*
X523199Y193337D01*
X520353Y189078D01*
X519354Y184055D01*
Y173228D01*
X520353Y168205D01*
X523199Y163947D01*
X526793Y160353D01*
X526027Y156506D01*
Y145132D01*
X499282D01*
X491954Y143674D01*
X481358Y146267D01*
X479488Y150725D01*
Y157598D01*
X445945D01*
Y132913D01*
X456507D01*
X458637Y130515D01*
X461482Y122913D01*
X460314Y121165D01*
X459315Y116142D01*
Y115870D01*
X455925Y112480D01*
X407402D01*
Y106943D01*
X361278D01*
X345307Y122913D01*
X345748Y126529D01*
X348769Y132913D01*
X370000D01*
Y157598D01*
X336457D01*
Y138475D01*
X331914Y131035D01*
X327919Y129383D01*
X287459D01*
X256969Y159874D01*
Y190039D01*
X168228D01*
Y132795D01*
X229890D01*
X265988Y96697D01*
X265988Y96697D01*
X272200Y92546D01*
X279528Y91089D01*
X283307D01*
Y79803D01*
X307087D01*
Y74803D01*
X312087D01*
Y56929D01*
X330866D01*
Y70553D01*
X333706Y71729D01*
X340866Y73548D01*
X346019Y70105D01*
X353346Y68648D01*
X353347Y68648D01*
X407402D01*
Y63110D01*
X447409D01*
X486618Y23902D01*
X486618Y23902D01*
X492830Y19751D01*
X500158Y18293D01*
X500158Y18294D01*
X732351D01*
X734279Y16477D01*
X733521Y12196D01*
X729337Y6477D01*
X6477D01*
Y584074D01*
X577076D01*
X581739Y574074D01*
D02*
G37*
G36*
X638779Y365158D02*
Y363983D01*
X637880Y361812D01*
X636219Y360151D01*
X634049Y359252D01*
X631699D01*
X629529Y360151D01*
X627867Y361812D01*
X626968Y363983D01*
Y365158D01*
Y392716D01*
X638779D01*
Y365158D01*
D02*
G37*
G36*
X619095D02*
Y363983D01*
X618195Y361812D01*
X616534Y360151D01*
X614364Y359252D01*
X612014D01*
X609844Y360151D01*
X608183Y361812D01*
X607284Y363983D01*
Y365158D01*
X607283D01*
Y392716D01*
X619095D01*
Y365158D01*
D02*
G37*
G36*
X599409D02*
Y363983D01*
X598510Y361812D01*
X596849Y360151D01*
X594678Y359252D01*
X592329D01*
X590159Y360151D01*
X588497Y361812D01*
X587598Y363983D01*
Y365158D01*
Y392716D01*
X599409D01*
Y365158D01*
D02*
G37*
G36*
X579724D02*
Y363983D01*
X578825Y361812D01*
X577164Y360151D01*
X574994Y359252D01*
X572644D01*
X570474Y360151D01*
X568812Y361812D01*
X567913Y363983D01*
Y365158D01*
Y392716D01*
X579724D01*
Y365158D01*
D02*
G37*
G36*
X560039D02*
Y363983D01*
X559140Y361812D01*
X557479Y360151D01*
X555308Y359252D01*
X552959D01*
X550789Y360151D01*
X549127Y361812D01*
X548228Y363983D01*
Y365158D01*
Y392716D01*
X560039D01*
X560039Y365158D01*
D02*
G37*
G36*
X540354D02*
Y363983D01*
X539455Y361812D01*
X537794Y360151D01*
X535623Y359252D01*
X533274D01*
X531104Y360151D01*
X529442Y361812D01*
X528543Y363983D01*
Y365158D01*
Y392716D01*
X540354D01*
Y365158D01*
D02*
G37*
G36*
X1174625Y6477D02*
X809358D01*
X805216Y16477D01*
X819461Y30722D01*
X828891Y31646D01*
X835102Y27496D01*
X842430Y26038D01*
X849757Y27496D01*
X855969Y31646D01*
X860120Y37858D01*
X861577Y45186D01*
Y67004D01*
X865492Y70217D01*
X865493Y70217D01*
X944072D01*
X948747Y62121D01*
X957008Y53860D01*
X967126Y48018D01*
X978411Y44995D01*
X990093D01*
X1001378Y48018D01*
X1011496Y53860D01*
X1019757Y62121D01*
X1025598Y72238D01*
X1028622Y83523D01*
Y95206D01*
X1025598Y106491D01*
X1019757Y116609D01*
X1011496Y124870D01*
X1001378Y130711D01*
X990093Y133735D01*
X978411D01*
X967126Y130711D01*
X957008Y124870D01*
X948747Y116609D01*
X944072Y108512D01*
X908498D01*
X901445Y115591D01*
Y132795D01*
X880225D01*
Y137795D01*
X875225D01*
Y160000D01*
X859005D01*
X858923Y158846D01*
X850447Y155738D01*
X849005Y155635D01*
X842430Y156943D01*
X835102Y155485D01*
X834376Y155000D01*
X826209D01*
Y147322D01*
X824740Y145123D01*
X823282Y137795D01*
Y112428D01*
X823282Y112427D01*
X823282Y112427D01*
Y58312D01*
X815361D01*
X810338Y57313D01*
X806079Y54467D01*
X799278Y47666D01*
X790039Y51493D01*
Y62480D01*
X786180D01*
Y72554D01*
X798307D01*
Y106176D01*
X758779D01*
X758031Y111176D01*
X756390D01*
X752547Y121176D01*
X752990Y121575D01*
X761850Y121575D01*
X789645D01*
Y155984D01*
X786180D01*
Y172554D01*
X798307D01*
Y206176D01*
X763031D01*
X755905Y206176D01*
X748779Y206176D01*
X732126D01*
X729167Y208705D01*
X728417Y210026D01*
X734239Y220026D01*
X735630D01*
X742957Y221483D01*
X743683Y221969D01*
X754527Y221969D01*
X761850Y221969D01*
X789645D01*
Y256378D01*
X786180D01*
Y272554D01*
X798307D01*
Y306176D01*
X763031D01*
X755905Y306176D01*
X748779Y306176D01*
X713504D01*
Y299560D01*
X696803D01*
X692901Y298784D01*
X691816Y298060D01*
X689683Y298265D01*
X686272Y299933D01*
X682577Y303668D01*
Y314961D01*
X681035Y318898D01*
X682577Y322835D01*
Y328981D01*
X692577Y332015D01*
X694024Y329850D01*
X698933Y326570D01*
X704724Y325418D01*
X719409D01*
Y321378D01*
X751850D01*
Y321378D01*
X757205D01*
Y321378D01*
X789645D01*
Y355788D01*
X786180D01*
Y372554D01*
X798307D01*
Y406176D01*
X797959D01*
X794645Y414803D01*
X794645D01*
Y432008D01*
X773425D01*
Y442008D01*
X794645D01*
Y444007D01*
X803884Y447834D01*
X817261Y434457D01*
Y418732D01*
X819177Y409100D01*
X824633Y400935D01*
X854000Y371568D01*
X862165Y366112D01*
X871797Y364196D01*
X947549D01*
X948747Y362121D01*
X957008Y353860D01*
X967126Y348018D01*
X978411Y344995D01*
X990093D01*
X1001378Y348018D01*
X1011496Y353860D01*
X1019757Y362121D01*
X1025598Y372238D01*
X1028622Y383523D01*
Y395206D01*
X1025598Y406491D01*
X1019757Y416608D01*
X1011496Y424870D01*
X1001378Y430711D01*
X998060Y431600D01*
Y441953D01*
X1003308Y443359D01*
X1014566Y449859D01*
X1023758Y459051D01*
X1030258Y470308D01*
X1033622Y482865D01*
Y484365D01*
X984252D01*
X934882D01*
Y482865D01*
X938246Y470308D01*
X944746Y459051D01*
X953938Y449859D01*
X965196Y443359D01*
X970444Y441953D01*
Y431600D01*
X967126Y430711D01*
X957008Y424870D01*
X948747Y416608D01*
X947549Y414533D01*
X905926D01*
X901445Y422677D01*
Y439882D01*
X880225D01*
Y444882D01*
X875225D01*
Y467087D01*
X859005D01*
X859005Y467087D01*
Y467087D01*
X851076Y471830D01*
X762786Y560120D01*
X754620Y565576D01*
X744989Y567491D01*
X725976D01*
X723506Y569962D01*
X717352Y574074D01*
X719181Y584074D01*
X1174625D01*
Y6477D01*
D02*
G37*
G36*
X677165Y342520D02*
X648432D01*
X646261Y343419D01*
X644600Y345080D01*
X643701Y347250D01*
Y348425D01*
Y349600D01*
X644600Y351770D01*
X646261Y353432D01*
X648432Y354331D01*
X677165D01*
Y342520D01*
D02*
G37*
G36*
X521062Y353432D02*
X522723Y351770D01*
X523622Y349600D01*
Y348425D01*
Y347250D01*
X522723Y345080D01*
X521062Y343419D01*
X518891Y342520D01*
X490158D01*
Y354331D01*
X518891D01*
X521062Y353432D01*
D02*
G37*
G36*
X677165Y322835D02*
X649606Y322835D01*
X648432D01*
X646261Y323734D01*
X644600Y325395D01*
X643701Y327565D01*
Y328740D01*
Y329915D01*
X644600Y332085D01*
X646261Y333747D01*
X648432Y334646D01*
X677165D01*
Y322835D01*
D02*
G37*
G36*
X521062Y333747D02*
X522723Y332085D01*
X523622Y329915D01*
Y328740D01*
Y327565D01*
X522723Y325395D01*
X521062Y323734D01*
X518891Y322835D01*
X517716D01*
Y322835D01*
X490158D01*
Y334646D01*
X518891D01*
X521062Y333747D01*
D02*
G37*
G36*
X677165Y303150D02*
X648432D01*
X646261Y304049D01*
X644600Y305710D01*
X643701Y307880D01*
Y309055D01*
Y310230D01*
X644600Y312400D01*
X646261Y314062D01*
X648432Y314961D01*
X677165D01*
Y303150D01*
D02*
G37*
G36*
X521062Y314062D02*
X522723Y312400D01*
X523622Y310230D01*
Y309055D01*
Y307880D01*
X522723Y305710D01*
X521062Y304049D01*
X518891Y303150D01*
X490158D01*
Y314961D01*
X518891D01*
X521062Y314062D01*
D02*
G37*
G36*
X677165Y283465D02*
X648432D01*
X646261Y284364D01*
X644600Y286025D01*
X643701Y288195D01*
Y289370D01*
Y290545D01*
X644600Y292715D01*
X646261Y294377D01*
X648432Y295276D01*
X677165D01*
Y283465D01*
D02*
G37*
G36*
X521062Y294377D02*
X522723Y292715D01*
X523622Y290545D01*
Y289370D01*
Y288195D01*
X522723Y286025D01*
X521062Y284364D01*
X518891Y283465D01*
X490158D01*
Y295276D01*
X518891D01*
X521062Y294377D01*
D02*
G37*
G36*
X677165Y263779D02*
X648432D01*
X646261Y264678D01*
X644600Y266340D01*
X643701Y268510D01*
Y269685D01*
Y270860D01*
X644600Y273030D01*
X646261Y274691D01*
X648432Y275591D01*
X649606D01*
Y275591D01*
X677165D01*
Y263779D01*
D02*
G37*
G36*
X517716Y275591D02*
X518891D01*
X521062Y274691D01*
X522723Y273030D01*
X523622Y270860D01*
Y269685D01*
Y268510D01*
X522723Y266340D01*
X521062Y264678D01*
X518891Y263779D01*
X490158D01*
Y275591D01*
X517716Y275591D01*
D02*
G37*
G36*
X633858Y249016D02*
X533465D01*
Y339567D01*
X543307Y349409D01*
X633858D01*
Y249016D01*
D02*
G37*
G36*
X677165Y244095D02*
X648432D01*
X646261Y244994D01*
X644600Y246655D01*
X643701Y248825D01*
Y250000D01*
Y251175D01*
X644600Y253345D01*
X646261Y255006D01*
X648432Y255905D01*
X677165D01*
Y244095D01*
D02*
G37*
G36*
X521062Y255006D02*
X522723Y253345D01*
X523622Y251175D01*
Y250000D01*
Y248825D01*
X522723Y246655D01*
X521062Y244994D01*
X518891Y244095D01*
X490158D01*
Y255905D01*
X518891D01*
X521062Y255006D01*
D02*
G37*
G36*
X636219Y238274D02*
X637880Y236613D01*
X638779Y234442D01*
Y233268D01*
Y205709D01*
X626968D01*
Y233268D01*
Y234442D01*
X627867Y236613D01*
X629529Y238274D01*
X631699Y239173D01*
X634049D01*
X636219Y238274D01*
D02*
G37*
G36*
X616534D02*
X618195Y236613D01*
X619095Y234442D01*
Y233268D01*
Y205709D01*
X607283D01*
X607284Y233268D01*
Y234442D01*
X608183Y236613D01*
X609844Y238274D01*
X612014Y239173D01*
X614364D01*
X616534Y238274D01*
D02*
G37*
G36*
X596849D02*
X598510Y236613D01*
X599409Y234442D01*
Y233268D01*
Y205709D01*
X587598D01*
Y233268D01*
Y234442D01*
X588497Y236613D01*
X590159Y238274D01*
X592329Y239173D01*
X594678D01*
X596849Y238274D01*
D02*
G37*
G36*
X577164D02*
X578825Y236613D01*
X579724Y234442D01*
Y233268D01*
Y205709D01*
X567913D01*
Y233268D01*
Y234442D01*
X568812Y236613D01*
X570474Y238274D01*
X572644Y239173D01*
X574994D01*
X577164Y238274D01*
D02*
G37*
G36*
X557479D02*
X559140Y236613D01*
X560039Y234442D01*
Y233268D01*
X560039D01*
Y205709D01*
X548228D01*
Y233268D01*
Y234442D01*
X549127Y236613D01*
X550789Y238274D01*
X552959Y239173D01*
X555308D01*
X557479Y238274D01*
D02*
G37*
G36*
X537794D02*
X539455Y236613D01*
X540354Y234442D01*
Y233268D01*
Y205709D01*
X528543D01*
Y233268D01*
Y234442D01*
X529442Y236613D01*
X531104Y238274D01*
X533274Y239173D01*
X535623D01*
X537794Y238274D01*
D02*
G37*
%LPC*%
G36*
X139764Y563491D02*
X115236D01*
Y528622D01*
X178974D01*
X178274Y533941D01*
X174291Y543556D01*
X167955Y551813D01*
X159698Y558149D01*
X150083Y562132D01*
X139764Y563491D01*
D02*
G37*
G36*
X105236D02*
X80709D01*
X70390Y562132D01*
X60774Y558149D01*
X52517Y551813D01*
X46181Y543556D01*
X42199Y533941D01*
X41498Y528622D01*
X105236D01*
Y563491D01*
D02*
G37*
G36*
X178974Y518622D02*
X115236D01*
Y483753D01*
X139764D01*
X150083Y485112D01*
X159698Y489095D01*
X167955Y495431D01*
X174291Y503688D01*
X178274Y513303D01*
X178974Y518622D01*
D02*
G37*
G36*
X105236D02*
X41498D01*
X42199Y513303D01*
X46181Y503688D01*
X52517Y495431D01*
X60774Y489095D01*
X70390Y485112D01*
X80709Y483753D01*
X105236D01*
Y518622D01*
D02*
G37*
G36*
X207598Y470630D02*
X163228D01*
Y442008D01*
X207598D01*
Y470630D01*
D02*
G37*
G36*
X323897Y554212D02*
X292244D01*
Y465472D01*
X294237D01*
X296368Y455472D01*
X280935Y440039D01*
X279920D01*
X275188Y438079D01*
X271969Y434860D01*
X269877Y434979D01*
X261969Y437418D01*
Y470630D01*
X217598D01*
Y437008D01*
Y403386D01*
X261969D01*
Y416913D01*
X269877Y419352D01*
X271969Y419471D01*
X275188Y416251D01*
X279920Y414291D01*
X285041D01*
X289773Y416251D01*
X293394Y419873D01*
X295354Y424605D01*
Y425620D01*
X315280Y445546D01*
X317491Y448854D01*
X318267Y452756D01*
Y465472D01*
X323897D01*
Y554212D01*
D02*
G37*
G36*
X207598Y432008D02*
X163228D01*
Y403386D01*
X207598D01*
Y432008D01*
D02*
G37*
G36*
X330866Y384016D02*
X312087D01*
Y371142D01*
X330866D01*
Y384016D01*
D02*
G37*
G36*
X302087D02*
X283307D01*
Y371142D01*
X302087D01*
Y384016D01*
D02*
G37*
G36*
X113745Y414449D02*
X106727D01*
X99948Y412632D01*
X93871Y409123D01*
X88908Y404161D01*
X85399Y398083D01*
X83583Y391304D01*
Y384286D01*
X85399Y377507D01*
X88908Y371430D01*
X93871Y366467D01*
X99948Y362958D01*
X106727Y361142D01*
X113745D01*
X120524Y362958D01*
X126602Y366467D01*
X131564Y371430D01*
X135073Y377507D01*
X136890Y384286D01*
Y391304D01*
X135073Y398083D01*
X131564Y404161D01*
X126602Y409123D01*
X120524Y412632D01*
X113745Y414449D01*
D02*
G37*
G36*
X330866Y227284D02*
X312087D01*
Y214410D01*
X330866D01*
Y227284D01*
D02*
G37*
G36*
X302087D02*
X283307D01*
Y214410D01*
X302087D01*
Y227284D01*
D02*
G37*
G36*
X113745Y237283D02*
X106727D01*
X99948Y235467D01*
X93871Y231958D01*
X88908Y226995D01*
X85399Y220918D01*
X83583Y214139D01*
Y207121D01*
X85399Y200342D01*
X88908Y194264D01*
X93871Y189302D01*
X99948Y185793D01*
X106727Y183976D01*
X113745D01*
X120524Y185793D01*
X126602Y189302D01*
X131564Y194264D01*
X135073Y200342D01*
X136890Y207121D01*
Y214139D01*
X135073Y220918D01*
X131564Y226995D01*
X126602Y231958D01*
X120524Y235467D01*
X113745Y237283D01*
D02*
G37*
G36*
X370000Y192283D02*
X336457D01*
Y167598D01*
X370000D01*
Y192283D01*
D02*
G37*
G36*
X139764Y114672D02*
X115236D01*
Y79803D01*
X178974D01*
X178274Y85122D01*
X174291Y94737D01*
X167955Y102995D01*
X159698Y109330D01*
X150083Y113313D01*
X139764Y114672D01*
D02*
G37*
G36*
X105236D02*
X80709D01*
X70390Y113313D01*
X60774Y109330D01*
X52517Y102995D01*
X46181Y94737D01*
X42199Y85122D01*
X41498Y79803D01*
X105236D01*
Y114672D01*
D02*
G37*
G36*
X302087Y69803D02*
X283307D01*
Y56929D01*
X302087D01*
Y69803D01*
D02*
G37*
G36*
X178974Y69803D02*
X115236D01*
Y34935D01*
X139764D01*
X150083Y36293D01*
X159698Y40276D01*
X167955Y46612D01*
X174291Y54869D01*
X178274Y64484D01*
X178974Y69803D01*
D02*
G37*
G36*
X105236D02*
X41498D01*
X42199Y64484D01*
X46181Y54869D01*
X52517Y46612D01*
X60774Y40276D01*
X70390Y36293D01*
X80709Y34935D01*
X105236D01*
Y69803D01*
D02*
G37*
G36*
X990752Y538735D02*
X989252D01*
Y494365D01*
X1033622D01*
Y495864D01*
X1030258Y508421D01*
X1023758Y519678D01*
X1014566Y528870D01*
X1003308Y535370D01*
X990752Y538735D01*
D02*
G37*
G36*
X979252D02*
X977752D01*
X965196Y535370D01*
X953938Y528870D01*
X944746Y519678D01*
X938246Y508421D01*
X934882Y495864D01*
Y494365D01*
X979252D01*
Y538735D01*
D02*
G37*
G36*
X901445Y467087D02*
X885225D01*
Y449882D01*
X901445D01*
Y467087D01*
D02*
G37*
G36*
X883466Y348504D02*
X878345D01*
X873613Y346544D01*
X869991Y342922D01*
X868032Y338191D01*
Y333069D01*
X869991Y328337D01*
X873613Y324716D01*
X878345Y322756D01*
X879360D01*
X919961Y282155D01*
X923269Y279945D01*
X927171Y279169D01*
X941049D01*
X942906Y272238D01*
X948747Y262121D01*
X957008Y253860D01*
X967126Y248018D01*
X978411Y244994D01*
X990093D01*
X1001378Y248018D01*
X1011496Y253860D01*
X1019757Y262121D01*
X1025598Y272238D01*
X1028622Y283523D01*
Y295206D01*
X1025598Y306491D01*
X1019757Y316608D01*
X1011496Y324870D01*
X1001378Y330711D01*
X990093Y333735D01*
X978411D01*
X967126Y330711D01*
X957008Y324870D01*
X948747Y316608D01*
X942906Y306491D01*
X941049Y299560D01*
X931394D01*
X893779Y337175D01*
Y338191D01*
X891819Y342922D01*
X888198Y346544D01*
X883466Y348504D01*
D02*
G37*
G36*
X904136Y251063D02*
X899014D01*
X894282Y249103D01*
X890661Y245482D01*
X888701Y240750D01*
Y235628D01*
X890661Y230897D01*
X891379Y230178D01*
Y196850D01*
X892155Y192949D01*
X894365Y189641D01*
X900386Y183620D01*
X903694Y181410D01*
X907596Y180633D01*
X940656D01*
X942906Y172238D01*
X948747Y162121D01*
X957008Y153860D01*
X967126Y148018D01*
X978411Y144994D01*
X990093D01*
X1001378Y148018D01*
X1011496Y153860D01*
X1019757Y162121D01*
X1025598Y172238D01*
X1028622Y183523D01*
Y195206D01*
X1025598Y206491D01*
X1019757Y216608D01*
X1011496Y224869D01*
X1001378Y230711D01*
X990093Y233735D01*
X978411D01*
X967126Y230711D01*
X957008Y224869D01*
X948747Y216608D01*
X942906Y206491D01*
X941441Y201025D01*
X911819D01*
X911771Y201074D01*
Y230178D01*
X912489Y230897D01*
X914449Y235628D01*
Y240750D01*
X912489Y245482D01*
X908867Y249103D01*
X904136Y251063D01*
D02*
G37*
G36*
X901445Y160000D02*
X885225D01*
Y142795D01*
X901445D01*
Y160000D01*
D02*
G37*
%LPD*%
D10*
X583661Y299213D02*
D03*
D11*
X534449Y376593D02*
D03*
X554134Y375984D02*
D03*
X573819D02*
D03*
X593504Y376593D02*
D03*
X613189Y375984D02*
D03*
X632874D02*
D03*
X661042Y348425D02*
D03*
X660433Y328740D02*
D03*
Y309055D02*
D03*
X661042Y289370D02*
D03*
X660433Y269685D02*
D03*
Y250000D02*
D03*
X632874Y211614D02*
D03*
X613189Y222441D02*
D03*
X593504D02*
D03*
X573819Y221832D02*
D03*
X554134Y222441D02*
D03*
X534449D02*
D03*
X496063Y250000D02*
D03*
X506890Y269685D02*
D03*
Y289370D02*
D03*
X506281Y309055D02*
D03*
X506890Y328740D02*
D03*
Y348425D02*
D03*
D12*
X212598Y161417D02*
D03*
Y259842D02*
D03*
Y338583D02*
D03*
Y437008D02*
D03*
D13*
X523622Y514764D02*
D03*
X602362Y552165D02*
D03*
Y477362D02*
D03*
D14*
X308071Y509842D02*
D03*
X436024D02*
D03*
D15*
X582766Y125984D02*
D03*
Y88189D02*
D03*
X541516Y125984D02*
D03*
Y88189D02*
D03*
X665266Y125984D02*
D03*
Y88189D02*
D03*
X624016Y88189D02*
D03*
Y125984D02*
D03*
X457677Y207480D02*
D03*
Y245276D02*
D03*
X500266Y88189D02*
D03*
Y125984D02*
D03*
D16*
X735630Y138780D02*
D03*
X773425D02*
D03*
X735630Y239173D02*
D03*
X773425D02*
D03*
X735630Y338583D02*
D03*
X773425D02*
D03*
X736024Y45276D02*
D03*
X773819D02*
D03*
X735630Y437008D02*
D03*
X773425D02*
D03*
X880225Y444882D02*
D03*
X842430D02*
D03*
X880225Y137795D02*
D03*
X842430D02*
D03*
D17*
X778543Y189365D02*
D03*
X733268D02*
D03*
Y289365D02*
D03*
X778543D02*
D03*
Y389365D02*
D03*
X733268D02*
D03*
X778543Y89365D02*
D03*
X733268D02*
D03*
D18*
X307087Y366142D02*
D03*
Y338583D02*
D03*
X307087Y232284D02*
D03*
Y259842D02*
D03*
Y74803D02*
D03*
Y102362D02*
D03*
D19*
X695866Y491142D02*
D03*
X735236D02*
D03*
X715551Y542323D02*
D03*
D20*
X375000Y237401D02*
D03*
Y162598D02*
D03*
X440945Y87795D02*
D03*
Y162598D02*
D03*
D21*
X457676Y338583D02*
X467520Y328740D01*
X456694Y338583D02*
X457676D01*
X467520Y328740D02*
X506890D01*
X736220Y389365D02*
X767205Y420349D01*
Y430787D02*
X773425Y437008D01*
X733268Y389365D02*
X736220D01*
X767205Y420349D02*
Y430787D01*
X759842Y467933D02*
X767205Y460571D01*
Y443228D02*
X773425Y437008D01*
X767205Y443228D02*
Y460571D01*
X759842Y467933D02*
Y469488D01*
X558758Y65194D02*
X558809Y65143D01*
X524245Y65194D02*
X558758D01*
X501250Y88189D02*
X524245Y65194D01*
X558787D02*
X581782Y88189D01*
X583750D01*
X500266D02*
X501250D01*
X619016Y189961D02*
X620079Y191024D01*
X588583Y189961D02*
X619016D01*
X620079D02*
X645717D01*
X664282Y125984D02*
X665266D01*
X658061Y132205D02*
Y133189D01*
X651575Y139675D02*
Y184103D01*
X658061Y132205D02*
X664282Y125984D01*
X651575Y139675D02*
X658061Y133189D01*
X645717Y189961D02*
X651575Y184103D01*
X695866Y66929D02*
X696966Y68029D01*
X708979D02*
X730315Y89365D01*
X696966Y68029D02*
X708979D01*
X730315Y89365D02*
X733268D01*
X583750Y88189D02*
X615325Y119764D01*
X617795D02*
X624016Y125984D01*
X615325Y119764D02*
X617795D01*
X624016Y66024D02*
Y88189D01*
X436024Y509842D02*
Y534528D01*
X441850Y540354D02*
X481299D01*
X436024Y534528D02*
X441850Y540354D01*
X901575Y196850D02*
Y238189D01*
Y196850D02*
X907596Y190829D01*
X982787D01*
X984252Y189365D01*
X308071Y452756D02*
Y509842D01*
X282480Y427165D02*
X308071Y452756D01*
X573939Y204604D02*
X588583Y189961D01*
X880905Y335630D02*
X927171Y289365D01*
X984252D01*
X572835Y416339D02*
X593383Y395790D01*
Y376714D02*
Y395790D01*
Y376714D02*
X593504Y376593D01*
X613189Y375984D02*
Y402596D01*
X625984Y415391D02*
Y416339D01*
X613189Y402596D02*
X625984Y415391D01*
X660433Y250000D02*
X680992D01*
X690945Y240048D01*
Y228734D02*
Y240048D01*
Y228734D02*
X730315Y189365D01*
X679331Y472441D02*
X695866Y488976D01*
X602362Y472441D02*
X679331D01*
X695866Y488976D02*
Y491142D01*
X698740Y474882D02*
X735630Y437992D01*
X695866Y491142D02*
X698740Y488268D01*
X735630Y437008D02*
Y437992D01*
X698740Y474882D02*
Y488268D01*
X775984Y341142D02*
Y386805D01*
X773425Y338583D02*
X775984Y341142D01*
Y386805D02*
X778543Y389365D01*
X660433Y269685D02*
X685087D01*
X690945Y275543D01*
X696803Y289365D02*
X733268D01*
X690945Y275543D02*
Y283507D01*
X696803Y289365D01*
X775984Y241732D02*
Y286805D01*
X773425Y239173D02*
X775984Y241732D01*
Y286805D02*
X778543Y289365D01*
X730315Y189365D02*
X733268D01*
X775984Y141339D02*
Y186805D01*
X773425Y138780D02*
X775984Y141339D01*
Y186805D02*
X778543Y189365D01*
X775984Y41929D02*
Y86805D01*
X773425Y39370D02*
X775984Y41929D01*
Y86805D02*
X778543Y89365D01*
X573939Y204604D02*
Y221712D01*
X573819Y221832D02*
X573939Y221712D01*
D22*
X449803Y87795D02*
X500158Y37441D01*
X733701D02*
X735630Y39370D01*
X500158Y37441D02*
X733701D01*
X307087Y110236D02*
X330906D01*
X500266Y125984D02*
X540532D01*
X228346Y161417D02*
X279528Y110236D01*
X842430Y45186D02*
Y112427D01*
X212598Y161417D02*
X228346D01*
X842430Y112427D02*
Y137795D01*
X499282Y125984D02*
X500266D01*
X842430Y112427D02*
X865492Y89365D01*
X353346Y87795D02*
X449803D01*
X330906Y110236D02*
X353346Y87795D01*
X865492Y89365D02*
X984252D01*
X279528Y110236D02*
X307087D01*
X539154Y127362D02*
X540532Y125984D01*
X541516D01*
X717812Y125000D02*
X731591Y138780D01*
X677454Y88189D02*
X698021Y108756D01*
X698819Y118008D02*
Y125000D01*
X731591Y138780D02*
X735630D01*
X698819Y125000D02*
X717812D01*
X706693Y129921D02*
Y151575D01*
X710630Y253937D02*
X725394Y239173D01*
X735630D01*
X665266Y88189D02*
X677454D01*
D23*
X565945Y149606D02*
Y177165D01*
X739370Y40945D02*
X740499D01*
X736114Y44202D02*
X739370Y40945D01*
X749724Y27738D02*
X757266Y20197D01*
X749724Y27738D02*
Y31720D01*
X757266Y20197D02*
X790372D01*
X815361Y45186D01*
X842430D01*
X740499Y40945D02*
X749724Y31720D01*
X554134Y188976D02*
X565945Y177165D01*
X554134Y188976D02*
Y222441D01*
X487549Y114252D02*
X499282Y125984D01*
X472441Y116142D02*
X479803Y123504D01*
X488347D01*
X449803Y87795D02*
X472441Y110433D01*
X532480Y173228D02*
X539951Y165758D01*
X532480Y173228D02*
Y184055D01*
X472441Y110433D02*
Y116142D01*
X539154Y127362D02*
Y156506D01*
D24*
X565945Y149606D02*
X582766Y132785D01*
X542500Y88189D02*
X560217Y105906D01*
X582766Y125984D02*
Y132785D01*
X565620Y110315D02*
X566112D01*
X581782Y125984D02*
X582766D01*
X561211Y105906D02*
X565620Y110315D01*
X566112D02*
X581782Y125984D01*
X560217Y105906D02*
X561211D01*
X541516Y88189D02*
X542500D01*
X534449Y186024D02*
Y222441D01*
X532480Y184055D02*
X534449Y186024D01*
D25*
X535153Y439961D02*
X673817D01*
X523622Y451492D02*
X535153Y439961D01*
X523622Y451492D02*
Y509842D01*
X673817Y439961D02*
X697835Y415943D01*
Y371664D02*
Y415943D01*
X704724Y340551D02*
Y364775D01*
X697835Y371664D02*
X704724Y364775D01*
Y340551D02*
X733661D01*
X735630Y338583D01*
D26*
X432284Y245276D02*
X496654D01*
X375000Y237401D02*
X424409D01*
X432284Y245276D01*
X871797Y389365D02*
X984252D01*
X842430Y418732D02*
Y444882D01*
Y418732D02*
X871797Y389365D01*
X744989Y542323D02*
X842430Y444882D01*
X715551Y542323D02*
X744989D01*
X705709Y552165D02*
X715551Y542323D01*
X602362Y552165D02*
X705709D01*
X496654Y245276D02*
X503937Y252559D01*
Y255905D01*
D27*
X482319Y309055D02*
X506281D01*
X312615Y306431D02*
X400829D01*
X479390Y306127D02*
X482319Y309055D01*
X401134Y306127D02*
X479390D01*
X400829Y306431D02*
X401134Y306127D01*
X307087Y311960D02*
Y338583D01*
Y311960D02*
X312615Y306431D01*
X395154Y291690D02*
X479999D01*
X482319Y289370D01*
X312615Y291994D02*
X394849D01*
X395154Y291690D01*
X482319Y289370D02*
X506890D01*
X307087Y286466D02*
X312615Y291994D01*
X307087Y259842D02*
Y286466D01*
X212598Y338583D02*
X307087D01*
X212598Y259842D02*
X307087D01*
D28*
X110236Y74803D02*
D03*
Y523622D02*
D03*
D29*
Y210630D02*
D03*
Y387795D02*
D03*
D30*
X984252Y489365D02*
D03*
Y189365D02*
D03*
Y89365D02*
D03*
Y289365D02*
D03*
Y389365D02*
D03*
D31*
X1145670Y535434D02*
D03*
X1125985Y496064D02*
D03*
X1145670Y456694D02*
D03*
X1125985Y417324D02*
D03*
X1145670Y377954D02*
D03*
X1125985Y338583D02*
D03*
X1145670Y299213D02*
D03*
X1125985Y259843D02*
D03*
X1145670Y220473D02*
D03*
X1125985Y181103D02*
D03*
X1145670Y141733D02*
D03*
X1125985Y102363D02*
D03*
X1145670Y62993D02*
D03*
X1125985Y23623D02*
D03*
X1106300Y535434D02*
D03*
X1086615Y496064D02*
D03*
X1106300Y456694D02*
D03*
X1086615Y417324D02*
D03*
X1106300Y377954D02*
D03*
X1086615Y338583D02*
D03*
X1106300Y299213D02*
D03*
X1086615Y259843D02*
D03*
X1106300Y220473D02*
D03*
X1086615Y181103D02*
D03*
X1106300Y141733D02*
D03*
X1086615Y102363D02*
D03*
X1106300Y62993D02*
D03*
X1086615Y23623D02*
D03*
X1066930Y535434D02*
D03*
X1047245Y496064D02*
D03*
X1066930Y456694D02*
D03*
X1047245Y417324D02*
D03*
X1066930Y377954D02*
D03*
X1047245Y338583D02*
D03*
X1066930Y299213D02*
D03*
X1047245Y259843D02*
D03*
X1066930Y220473D02*
D03*
X1047245Y181103D02*
D03*
X1066930Y141733D02*
D03*
X1047245Y102363D02*
D03*
X1066930Y62993D02*
D03*
X1047245Y23623D02*
D03*
X1027560Y535434D02*
D03*
X1007875Y338583D02*
D03*
X1027560Y220473D02*
D03*
Y141733D02*
D03*
X1007875Y23623D02*
D03*
X968505D02*
D03*
X948820Y535434D02*
D03*
X929135Y338583D02*
D03*
Y259843D02*
D03*
X948820Y141733D02*
D03*
X929135Y23623D02*
D03*
X909450Y535434D02*
D03*
X889765Y496064D02*
D03*
X909450Y456694D02*
D03*
X889765Y259843D02*
D03*
Y181103D02*
D03*
X909450Y141733D02*
D03*
X889765Y23623D02*
D03*
X870080Y535434D02*
D03*
X850395Y496064D02*
D03*
Y338583D02*
D03*
Y181103D02*
D03*
X830710Y535434D02*
D03*
Y377954D02*
D03*
Y299213D02*
D03*
X811025Y259843D02*
D03*
X830710Y220473D02*
D03*
X811025Y181103D02*
D03*
Y102363D02*
D03*
X653544Y496064D02*
D03*
X555119Y535434D02*
D03*
X496064Y417324D02*
D03*
X476379Y456694D02*
D03*
X456694Y417324D02*
D03*
Y338583D02*
D03*
Y23623D02*
D03*
X437009Y456694D02*
D03*
X417324Y417324D02*
D03*
Y338583D02*
D03*
Y23623D02*
D03*
X377954Y496064D02*
D03*
X397639Y456694D02*
D03*
X377954Y417324D02*
D03*
Y338583D02*
D03*
Y23623D02*
D03*
X338583Y496064D02*
D03*
X358268Y456694D02*
D03*
Y377954D02*
D03*
X338583Y338583D02*
D03*
Y23623D02*
D03*
X299213Y181103D02*
D03*
X318898Y141733D02*
D03*
X299213Y23623D02*
D03*
X279528Y535434D02*
D03*
X259843Y496064D02*
D03*
X279528Y456694D02*
D03*
Y299213D02*
D03*
X259843Y23623D02*
D03*
X240158Y535434D02*
D03*
X220473Y496064D02*
D03*
X240158Y377954D02*
D03*
Y299213D02*
D03*
Y220473D02*
D03*
X220473Y23623D02*
D03*
X200788Y535434D02*
D03*
X181103Y496064D02*
D03*
X200788Y62993D02*
D03*
X181103Y23623D02*
D03*
X141733Y417324D02*
D03*
X161418Y377954D02*
D03*
X141733Y338583D02*
D03*
X161418Y299213D02*
D03*
X141733Y259843D02*
D03*
X161418Y220473D02*
D03*
X141733Y181103D02*
D03*
Y23623D02*
D03*
X122048Y456694D02*
D03*
X102363Y338583D02*
D03*
X122048Y299213D02*
D03*
X102363Y259843D02*
D03*
X122048Y141733D02*
D03*
X102363Y23623D02*
D03*
X82678Y456694D02*
D03*
X62993Y417324D02*
D03*
Y338583D02*
D03*
X82678Y299213D02*
D03*
X62993Y259843D02*
D03*
Y181103D02*
D03*
X82678Y141733D02*
D03*
X62993Y23623D02*
D03*
X23623Y496064D02*
D03*
X43308Y456694D02*
D03*
X23623Y417324D02*
D03*
X43308Y377954D02*
D03*
X23623Y338583D02*
D03*
X43308Y299213D02*
D03*
X23623Y259843D02*
D03*
X43308Y220473D02*
D03*
X23623Y181103D02*
D03*
X43308Y141733D02*
D03*
X23623Y102363D02*
D03*
Y23623D02*
D03*
X759842Y469488D02*
D03*
X558809Y65143D02*
D03*
X620079Y191024D02*
D03*
X551716Y331158D02*
D03*
X615606D02*
D03*
Y267267D02*
D03*
X551716D02*
D03*
X695866Y66929D02*
D03*
X624016Y66024D02*
D03*
X481299Y540354D02*
D03*
X698819Y125000D02*
D03*
X426181Y239173D02*
D03*
X706693Y151575D02*
D03*
X710630Y253937D02*
D03*
X704724Y340551D02*
D03*
X625984Y416339D02*
D03*
X572835D02*
D03*
X880905Y335630D02*
D03*
X282480Y427165D02*
D03*
X901575Y238189D02*
D03*
%TF.MD5,7c40ba0be088a2671777d45c7472208d*%
M02*
