%TF.GenerationSoftware,Altium Limited,Altium Designer,24.7.2 (38)*%
G04 Layer_Physical_Order=2*
G04 Layer_Color=16711680*
%FSLAX26Y26*%
%MOIN*%
%TF.SameCoordinates,5A157747-18B5-4676-A4C7-82BAAE217A37*%
%TF.FilePolarity,Positive*%
%TF.FileFunction,Copper,L2,Bot,Signal*%
%TF.Part,Single*%
G01*
G75*
%TA.AperFunction,Conductor*%
%ADD21C,0.010000*%
%ADD25C,0.019685*%
%TA.AperFunction,ComponentPad*%
%ADD28O,0.118110X0.059055*%
%ADD29C,0.019685*%
%ADD30C,0.078740*%
%TA.AperFunction,ViaPad*%
%ADD31C,0.015748*%
G36*
X1174625Y6477D02*
X6477D01*
Y584074D01*
X1174625D01*
Y6477D01*
D02*
G37*
%LPC*%
G36*
X139764Y563491D02*
X115236D01*
Y528622D01*
X178974D01*
X178274Y533941D01*
X174291Y543556D01*
X167955Y551813D01*
X159698Y558149D01*
X150083Y562132D01*
X139764Y563491D01*
D02*
G37*
G36*
X105236D02*
X80709D01*
X70390Y562132D01*
X60774Y558149D01*
X52517Y551813D01*
X46181Y543556D01*
X42199Y533941D01*
X41498Y528622D01*
X105236D01*
Y563491D01*
D02*
G37*
G36*
X472567Y562754D02*
X344300D01*
X340398Y561978D01*
X337090Y559768D01*
X180594Y403272D01*
X178384Y399964D01*
X177608Y396062D01*
Y111613D01*
X178384Y107711D01*
X180594Y104403D01*
X245987Y39011D01*
X249294Y36801D01*
X253196Y36025D01*
X604212D01*
X608114Y36801D01*
X611422Y39011D01*
X625561Y53150D01*
X626577D01*
X631308Y55110D01*
X634930Y58731D01*
X636890Y63463D01*
Y68585D01*
X634930Y73316D01*
X631308Y76938D01*
X626577Y78898D01*
X621455D01*
X616723Y76938D01*
X613102Y73316D01*
X611142Y68585D01*
Y67569D01*
X599989Y56416D01*
X580138D01*
X577648Y60143D01*
X539970D01*
X537480Y56416D01*
X257419D01*
X197999Y115836D01*
Y391839D01*
X348523Y542362D01*
X468344D01*
X468425Y542281D01*
Y537793D01*
X470385Y533062D01*
X474007Y529440D01*
X478738Y527480D01*
X483860D01*
X488592Y529440D01*
X492213Y533062D01*
X494173Y537793D01*
Y542915D01*
X492213Y547647D01*
X488592Y551268D01*
X486944Y551951D01*
X485635Y553910D01*
X479777Y559768D01*
X476469Y561978D01*
X472567Y562754D01*
D02*
G37*
G36*
X990752Y538735D02*
X989252D01*
Y494365D01*
X1033622D01*
Y495864D01*
X1030258Y508421D01*
X1023758Y519678D01*
X1014566Y528870D01*
X1003308Y535370D01*
X990752Y538735D01*
D02*
G37*
G36*
X979252D02*
X977752D01*
X965196Y535370D01*
X953938Y528870D01*
X944746Y519678D01*
X938246Y508421D01*
X934882Y495864D01*
Y494365D01*
X979252D01*
Y538735D01*
D02*
G37*
G36*
X178974Y518622D02*
X115236D01*
Y483753D01*
X139764D01*
X150083Y485112D01*
X159698Y489095D01*
X167955Y495431D01*
X174291Y503688D01*
X178274Y513303D01*
X178974Y518622D01*
D02*
G37*
G36*
X105236D02*
X41498D01*
X42199Y513303D01*
X46181Y503688D01*
X52517Y495431D01*
X60774Y489095D01*
X70390Y485112D01*
X80709Y483753D01*
X105236D01*
Y518622D01*
D02*
G37*
G36*
X764842Y486764D02*
Y474488D01*
X777118D01*
X774995Y479613D01*
X769967Y484641D01*
X764842Y486764D01*
D02*
G37*
G36*
X754842D02*
X749718Y484641D01*
X744690Y479613D01*
X742567Y474488D01*
X754842D01*
Y486764D01*
D02*
G37*
G36*
X113745Y414449D02*
X106727D01*
X99948Y412632D01*
X93871Y409123D01*
X88908Y404161D01*
X85399Y398083D01*
X83583Y391304D01*
Y384286D01*
X85399Y377507D01*
X88908Y371430D01*
X93871Y366467D01*
X99948Y362958D01*
X106727Y361142D01*
X113745D01*
X120524Y362958D01*
X126602Y366467D01*
X131564Y371430D01*
X135073Y377507D01*
X136890Y384286D01*
Y391304D01*
X135073Y398083D01*
X131564Y404161D01*
X126602Y409123D01*
X120524Y412632D01*
X113745Y414449D01*
D02*
G37*
G36*
X1033622Y484365D02*
X984252D01*
X934882D01*
Y482865D01*
X938246Y470308D01*
X944746Y459051D01*
X953938Y449859D01*
X965196Y443359D01*
X970444Y441953D01*
Y431600D01*
X967126Y430711D01*
X957008Y424870D01*
X948747Y416608D01*
X942906Y406491D01*
X939882Y395206D01*
Y383523D01*
X942906Y372238D01*
X948747Y362121D01*
X957008Y353860D01*
X967126Y348018D01*
X978411Y344995D01*
X990093D01*
X1001378Y348018D01*
X1011496Y353860D01*
X1019757Y362121D01*
X1025598Y372238D01*
X1028622Y383523D01*
Y395206D01*
X1025598Y406491D01*
X1019757Y416608D01*
X1011496Y424870D01*
X1001378Y430711D01*
X998060Y431600D01*
Y441953D01*
X1003308Y443359D01*
X1014566Y449859D01*
X1023758Y459051D01*
X1030258Y470308D01*
X1033622Y482865D01*
Y484365D01*
D02*
G37*
G36*
X620606Y348433D02*
Y336158D01*
X632882D01*
X630759Y341283D01*
X625731Y346311D01*
X620606Y348433D01*
D02*
G37*
G36*
X610606D02*
X605482Y346311D01*
X600454Y341283D01*
X598331Y336158D01*
X610606D01*
Y348433D01*
D02*
G37*
G36*
X556716D02*
Y336158D01*
X568992D01*
X566869Y341283D01*
X561841Y346311D01*
X556716Y348433D01*
D02*
G37*
G36*
X779378Y464488D02*
X740307D01*
X734010Y459015D01*
X605315D01*
X601413Y458239D01*
X598105Y456029D01*
X571289Y429213D01*
X570274D01*
X565542Y427253D01*
X561921Y423631D01*
X559961Y418899D01*
Y413778D01*
X561921Y409046D01*
X565542Y405425D01*
X570274Y403465D01*
X575395D01*
X580127Y405425D01*
X583749Y409046D01*
X585709Y413778D01*
Y414793D01*
X609538Y438623D01*
X621012D01*
X622077Y438112D01*
X623332Y429816D01*
X621651Y428478D01*
X623423Y429213D01*
Y429213D01*
X618692Y427253D01*
X615070Y423631D01*
X613110Y418899D01*
Y413778D01*
X615070Y409046D01*
X618692Y405425D01*
X623423Y403465D01*
X628545D01*
X633277Y405425D01*
X633995Y406143D01*
X737903D01*
X847088Y296958D01*
Y244047D01*
X847864Y240145D01*
X850074Y236837D01*
X855932Y230979D01*
X859240Y228769D01*
X863141Y227993D01*
X893564D01*
X894282Y227275D01*
X899014Y225315D01*
X904136D01*
X908867Y227275D01*
X912489Y230897D01*
X914449Y235628D01*
Y240750D01*
X912489Y245482D01*
X908867Y249103D01*
X904136Y251063D01*
X899014D01*
X894282Y249103D01*
X893564Y248385D01*
X867479D01*
Y301181D01*
X866703Y305083D01*
X864493Y308391D01*
X749336Y423548D01*
X746028Y425758D01*
X742126Y426534D01*
X637719D01*
X635560Y428623D01*
X639604Y438623D01*
X782194D01*
X843151Y377666D01*
Y362205D01*
X843927Y358303D01*
X846137Y354995D01*
X868032Y333101D01*
Y333069D01*
X869991Y328337D01*
X873613Y324716D01*
X878345Y322756D01*
X883466D01*
X888198Y324716D01*
X891819Y328337D01*
X893779Y333069D01*
Y338191D01*
X891819Y342922D01*
X888198Y346544D01*
X883466Y348504D01*
X881466D01*
X863542Y366428D01*
Y381890D01*
X862766Y385791D01*
X860556Y389099D01*
X793627Y456029D01*
X790319Y458239D01*
X786417Y459015D01*
X785675D01*
X779378Y464488D01*
D02*
G37*
G36*
X632882Y326158D02*
X620606D01*
Y313882D01*
X625731Y316005D01*
X630759Y321033D01*
X632882Y326158D01*
D02*
G37*
G36*
X610606D02*
X598331D01*
X600454Y321033D01*
X605482Y316005D01*
X610606Y313882D01*
Y326158D01*
D02*
G37*
G36*
X568992D02*
X556716D01*
Y313882D01*
X561841Y316005D01*
X566869Y321033D01*
X568992Y326158D01*
D02*
G37*
G36*
X620606Y284543D02*
Y272267D01*
X632882D01*
X630759Y277392D01*
X625731Y282420D01*
X620606Y284543D01*
D02*
G37*
G36*
X610606D02*
X605482Y282420D01*
X600454Y277392D01*
X598331Y272267D01*
X610606D01*
Y284543D01*
D02*
G37*
G36*
X556716D02*
Y272267D01*
X568992D01*
X566869Y277392D01*
X561841Y282420D01*
X556716Y284543D01*
D02*
G37*
G36*
X632882Y262267D02*
X620606D01*
Y249992D01*
X625731Y252115D01*
X630759Y257143D01*
X632882Y262267D01*
D02*
G37*
G36*
X610606D02*
X598331D01*
X600454Y257143D01*
X605482Y252115D01*
X610606Y249992D01*
Y262267D01*
D02*
G37*
G36*
X568992D02*
X556716D01*
Y249992D01*
X561841Y252115D01*
X566869Y257143D01*
X568992Y262267D01*
D02*
G37*
G36*
X990093Y333735D02*
X978411D01*
X967126Y330711D01*
X957008Y324870D01*
X948747Y316608D01*
X942906Y306491D01*
X939882Y295206D01*
Y283523D01*
X942906Y272238D01*
X948747Y262121D01*
X957008Y253860D01*
X967126Y248018D01*
X978411Y244994D01*
X990093D01*
X1001378Y248018D01*
X1011496Y253860D01*
X1019757Y262121D01*
X1025598Y272238D01*
X1028622Y283523D01*
Y295206D01*
X1025598Y306491D01*
X1019757Y316608D01*
X1011496Y324870D01*
X1001378Y330711D01*
X990093Y333735D01*
D02*
G37*
G36*
X113745Y237283D02*
X106727D01*
X99948Y235467D01*
X93871Y231958D01*
X88908Y226995D01*
X85399Y220918D01*
X83583Y214139D01*
Y207121D01*
X85399Y200342D01*
X88908Y194264D01*
X93871Y189302D01*
X99948Y185793D01*
X106727Y183976D01*
X113745D01*
X120524Y185793D01*
X126602Y189302D01*
X131564Y194264D01*
X135073Y200342D01*
X136890Y207121D01*
Y214139D01*
X135073Y220918D01*
X131564Y226995D01*
X126602Y231958D01*
X120524Y235467D01*
X113745Y237283D01*
D02*
G37*
G36*
X285041Y440039D02*
X279920D01*
X275188Y438079D01*
X271566Y434458D01*
X269606Y429726D01*
Y424605D01*
X271566Y419873D01*
X275188Y416251D01*
X279920Y414291D01*
X285041D01*
X289773Y416251D01*
X290491Y416969D01*
X334359D01*
X386491Y364838D01*
X389799Y362627D01*
X393701Y361851D01*
X505619D01*
X518347Y349123D01*
Y279881D01*
X513779D01*
X509878Y279105D01*
X506570Y276895D01*
X498696Y269021D01*
X496486Y265713D01*
X495710Y261811D01*
Y196882D01*
X496486Y192980D01*
X497493Y191472D01*
X495561Y185345D01*
X492754Y181472D01*
X444260D01*
X437966Y187767D01*
Y230094D01*
X440163Y233382D01*
X441315Y239173D01*
X440163Y244964D01*
X436882Y249874D01*
X431972Y253155D01*
X426181Y254307D01*
X420390Y253155D01*
X415480Y249874D01*
X412132Y246525D01*
X408851Y241616D01*
X407699Y235825D01*
X407699Y235824D01*
Y181499D01*
X407699Y181498D01*
X408851Y175707D01*
X412132Y170797D01*
X427291Y155638D01*
X427291Y155638D01*
X432201Y152357D01*
X437992Y151205D01*
X437992Y151205D01*
X684280D01*
X687230Y148256D01*
X687230Y148256D01*
X690276Y146220D01*
X691216Y138477D01*
X690755Y135236D01*
X689529Y133917D01*
X687905Y132292D01*
X685945Y127561D01*
Y122439D01*
X687905Y117707D01*
X691526Y114086D01*
X696258Y112126D01*
X701380D01*
X706111Y114086D01*
X709733Y117707D01*
X711693Y122439D01*
Y127561D01*
X712312Y135411D01*
X716135Y140033D01*
X717394Y140874D01*
X720674Y145784D01*
X721826Y151575D01*
X720674Y157366D01*
X719462Y159181D01*
Y165354D01*
X719462Y165354D01*
X719462Y165355D01*
Y208544D01*
X722247Y212713D01*
X723399Y218504D01*
X723399Y218504D01*
Y246331D01*
X724611Y248145D01*
X725763Y253937D01*
X724611Y259728D01*
X723399Y261543D01*
Y335630D01*
X722247Y341421D01*
X718966Y346331D01*
X718966Y346331D01*
X715425Y349872D01*
X710516Y353152D01*
X704724Y354304D01*
X698933Y353152D01*
X694024Y349872D01*
X690743Y344962D01*
X689591Y339171D01*
X690743Y333380D01*
X693132Y329804D01*
Y256302D01*
X693132Y256301D01*
X693602Y253937D01*
X693132Y251572D01*
X693132Y251572D01*
Y224526D01*
X690347Y220358D01*
X689195Y214567D01*
X689195Y214566D01*
Y181472D01*
X640881D01*
X632953Y188463D01*
Y193584D01*
X630993Y198316D01*
X627371Y201938D01*
X622640Y203898D01*
X617518D01*
X612786Y201938D01*
X612068Y201220D01*
X516101D01*
Y257588D01*
X518003Y259489D01*
X522685D01*
X526587Y260265D01*
X536563Y257143D01*
X541591Y252115D01*
X546716Y249992D01*
Y267267D01*
Y286203D01*
X538739Y292063D01*
Y306362D01*
X546716Y312222D01*
Y331158D01*
Y349693D01*
X544786Y350577D01*
X538260Y355755D01*
X537963Y357248D01*
X535753Y360556D01*
X517052Y379257D01*
X513744Y381467D01*
X509843Y382243D01*
X397924D01*
X345792Y434375D01*
X342485Y436585D01*
X338583Y437361D01*
X290491D01*
X289773Y438079D01*
X285041Y440039D01*
D02*
G37*
G36*
X990093Y233735D02*
X978411D01*
X967126Y230711D01*
X957008Y224869D01*
X948747Y216608D01*
X942906Y206491D01*
X939882Y195206D01*
Y183523D01*
X942906Y172238D01*
X948747Y162121D01*
X957008Y153860D01*
X967126Y148018D01*
X978411Y144994D01*
X990093D01*
X1001378Y148018D01*
X1011496Y153860D01*
X1019757Y162121D01*
X1025598Y172238D01*
X1028622Y183523D01*
Y195206D01*
X1025598Y206491D01*
X1019757Y216608D01*
X1011496Y224869D01*
X1001378Y230711D01*
X990093Y233735D01*
D02*
G37*
G36*
X139764Y114672D02*
X115236D01*
Y79803D01*
X178974D01*
X178274Y85122D01*
X174291Y94737D01*
X167955Y102995D01*
X159698Y109330D01*
X150083Y113313D01*
X139764Y114672D01*
D02*
G37*
G36*
X105236D02*
X80709D01*
X70390Y113313D01*
X60774Y109330D01*
X52517Y102995D01*
X46181Y94737D01*
X42199Y85122D01*
X41498Y79803D01*
X105236D01*
Y114672D01*
D02*
G37*
G36*
X700866Y84205D02*
Y71929D01*
X713142D01*
X711019Y77054D01*
X705991Y82082D01*
X700866Y84205D01*
D02*
G37*
G36*
X690866D02*
X685741Y82082D01*
X680713Y77054D01*
X678591Y71929D01*
X690866D01*
Y84205D01*
D02*
G37*
G36*
X563809Y82418D02*
Y70143D01*
X576085D01*
X573962Y75268D01*
X568934Y80296D01*
X563809Y82418D01*
D02*
G37*
G36*
X553809D02*
X548684Y80296D01*
X543656Y75268D01*
X541533Y70143D01*
X553809D01*
Y82418D01*
D02*
G37*
G36*
X713142Y61929D02*
X700866D01*
Y49654D01*
X705991Y51776D01*
X711019Y56804D01*
X713142Y61929D01*
D02*
G37*
G36*
X690866D02*
X678591D01*
X680713Y56804D01*
X685741Y51776D01*
X690866Y49654D01*
Y61929D01*
D02*
G37*
G36*
X990093Y133735D02*
X978411D01*
X967126Y130711D01*
X957008Y124870D01*
X948747Y116609D01*
X942906Y106491D01*
X939882Y95206D01*
Y83523D01*
X942906Y72238D01*
X948747Y62121D01*
X957008Y53860D01*
X967126Y48018D01*
X978411Y44995D01*
X990093D01*
X1001378Y48018D01*
X1011496Y53860D01*
X1019757Y62121D01*
X1025598Y72238D01*
X1028622Y83523D01*
Y95206D01*
X1025598Y106491D01*
X1019757Y116609D01*
X1011496Y124870D01*
X1001378Y130711D01*
X990093Y133735D01*
D02*
G37*
G36*
X178974Y69803D02*
X115236D01*
Y34935D01*
X139764D01*
X150083Y36293D01*
X159698Y40276D01*
X167955Y46612D01*
X174291Y54869D01*
X178274Y64484D01*
X178974Y69803D01*
D02*
G37*
G36*
X105236D02*
X41498D01*
X42199Y64484D01*
X46181Y54869D01*
X52517Y46612D01*
X60774Y40276D01*
X70390Y36293D01*
X80709Y34935D01*
X105236D01*
Y69803D01*
D02*
G37*
%LPD*%
D21*
X187804Y111613D02*
X253196Y46221D01*
X604212D02*
X624016Y66024D01*
X253196Y46221D02*
X604212D01*
X511763Y191024D02*
X620079D01*
X481299Y540354D02*
Y541910D01*
X472567Y552558D02*
X478425Y546700D01*
X344300Y552558D02*
X472567D01*
X478425Y544784D02*
Y546700D01*
Y544784D02*
X481299Y541910D01*
X187804Y111613D02*
Y396062D01*
X344300Y552558D01*
X863141Y238189D02*
X901575D01*
X857284Y244047D02*
Y301181D01*
Y244047D02*
X863141Y238189D01*
X282480Y427165D02*
X338583D01*
X393701Y372047D01*
X509843D01*
X528543Y353346D01*
X513779Y269685D02*
X522685D01*
X528543Y275543D01*
X505906Y196882D02*
Y261811D01*
X513779Y269685D01*
X528543Y275543D02*
Y353346D01*
X505906Y196882D02*
X511763Y191024D01*
X742126Y416339D02*
X857284Y301181D01*
X853346Y362205D02*
X878937Y336614D01*
X786417Y448819D02*
X853346Y381890D01*
Y362205D02*
Y381890D01*
X605315Y448819D02*
X786417D01*
X625984Y416339D02*
X742126D01*
X572835D02*
X605315Y448819D01*
D25*
X437992Y166339D02*
X690549D01*
X697931Y158957D01*
X422832Y181498D02*
X437992Y166339D01*
X422832Y181498D02*
Y235825D01*
X708265Y218504D02*
Y251572D01*
X710630Y253937D02*
Y253937D01*
X704328Y165354D02*
Y165354D01*
X422832Y235825D02*
X426181Y239173D01*
X704328Y165354D02*
Y214567D01*
Y153939D02*
X706693Y151575D01*
X704328Y153939D02*
Y165354D01*
Y214567D02*
X708265Y218504D01*
Y256301D02*
X710630Y253937D01*
X704724Y339171D02*
X708265Y335630D01*
X697931Y158957D02*
X704328Y165354D01*
X708265Y256301D02*
Y335630D01*
Y251572D02*
X710630Y253937D01*
D28*
X110236Y74803D02*
D03*
Y523622D02*
D03*
D29*
Y210630D02*
D03*
Y387795D02*
D03*
D30*
X984252Y489365D02*
D03*
Y189365D02*
D03*
Y89365D02*
D03*
Y289365D02*
D03*
Y389365D02*
D03*
D31*
X1145670Y535434D02*
D03*
X1125985Y496064D02*
D03*
X1145670Y456694D02*
D03*
X1125985Y417324D02*
D03*
X1145670Y377954D02*
D03*
X1125985Y338583D02*
D03*
X1145670Y299213D02*
D03*
X1125985Y259843D02*
D03*
X1145670Y220473D02*
D03*
X1125985Y181103D02*
D03*
X1145670Y141733D02*
D03*
X1125985Y102363D02*
D03*
X1145670Y62993D02*
D03*
X1125985Y23623D02*
D03*
X1106300Y535434D02*
D03*
X1086615Y496064D02*
D03*
X1106300Y456694D02*
D03*
X1086615Y417324D02*
D03*
X1106300Y377954D02*
D03*
X1086615Y338583D02*
D03*
X1106300Y299213D02*
D03*
X1086615Y259843D02*
D03*
X1106300Y220473D02*
D03*
X1086615Y181103D02*
D03*
X1106300Y141733D02*
D03*
X1086615Y102363D02*
D03*
X1106300Y62993D02*
D03*
X1086615Y23623D02*
D03*
X1066930Y535434D02*
D03*
X1047245Y496064D02*
D03*
X1066930Y456694D02*
D03*
X1047245Y417324D02*
D03*
X1066930Y377954D02*
D03*
X1047245Y338583D02*
D03*
X1066930Y299213D02*
D03*
X1047245Y259843D02*
D03*
X1066930Y220473D02*
D03*
X1047245Y181103D02*
D03*
X1066930Y141733D02*
D03*
X1047245Y102363D02*
D03*
X1066930Y62993D02*
D03*
X1047245Y23623D02*
D03*
X1027560Y535434D02*
D03*
X1007875Y338583D02*
D03*
X1027560Y220473D02*
D03*
Y141733D02*
D03*
X1007875Y23623D02*
D03*
X968505D02*
D03*
X948820Y535434D02*
D03*
X929135Y338583D02*
D03*
Y259843D02*
D03*
X948820Y141733D02*
D03*
X929135Y23623D02*
D03*
X909450Y535434D02*
D03*
X889765Y496064D02*
D03*
X909450Y456694D02*
D03*
X889765Y259843D02*
D03*
Y181103D02*
D03*
X909450Y141733D02*
D03*
X889765Y23623D02*
D03*
X870080Y535434D02*
D03*
X850395Y496064D02*
D03*
Y338583D02*
D03*
Y181103D02*
D03*
X830710Y535434D02*
D03*
Y377954D02*
D03*
Y299213D02*
D03*
X811025Y259843D02*
D03*
X830710Y220473D02*
D03*
X811025Y181103D02*
D03*
Y102363D02*
D03*
X653544Y496064D02*
D03*
X555119Y535434D02*
D03*
X496064Y417324D02*
D03*
X476379Y456694D02*
D03*
X456694Y417324D02*
D03*
Y338583D02*
D03*
Y23623D02*
D03*
X437009Y456694D02*
D03*
X417324Y417324D02*
D03*
Y338583D02*
D03*
Y23623D02*
D03*
X377954Y496064D02*
D03*
X397639Y456694D02*
D03*
X377954Y417324D02*
D03*
Y338583D02*
D03*
Y23623D02*
D03*
X338583Y496064D02*
D03*
X358268Y456694D02*
D03*
Y377954D02*
D03*
X338583Y338583D02*
D03*
Y23623D02*
D03*
X299213Y181103D02*
D03*
X318898Y141733D02*
D03*
X299213Y23623D02*
D03*
X279528Y535434D02*
D03*
X259843Y496064D02*
D03*
X279528Y456694D02*
D03*
Y299213D02*
D03*
X259843Y23623D02*
D03*
X240158Y535434D02*
D03*
X220473Y496064D02*
D03*
X240158Y377954D02*
D03*
Y299213D02*
D03*
Y220473D02*
D03*
X220473Y23623D02*
D03*
X200788Y535434D02*
D03*
X181103Y496064D02*
D03*
X200788Y62993D02*
D03*
X181103Y23623D02*
D03*
X141733Y417324D02*
D03*
X161418Y377954D02*
D03*
X141733Y338583D02*
D03*
X161418Y299213D02*
D03*
X141733Y259843D02*
D03*
X161418Y220473D02*
D03*
X141733Y181103D02*
D03*
Y23623D02*
D03*
X122048Y456694D02*
D03*
X102363Y338583D02*
D03*
X122048Y299213D02*
D03*
X102363Y259843D02*
D03*
X122048Y141733D02*
D03*
X102363Y23623D02*
D03*
X82678Y456694D02*
D03*
X62993Y417324D02*
D03*
Y338583D02*
D03*
X82678Y299213D02*
D03*
X62993Y259843D02*
D03*
Y181103D02*
D03*
X82678Y141733D02*
D03*
X62993Y23623D02*
D03*
X23623Y496064D02*
D03*
X43308Y456694D02*
D03*
X23623Y417324D02*
D03*
X43308Y377954D02*
D03*
X23623Y338583D02*
D03*
X43308Y299213D02*
D03*
X23623Y259843D02*
D03*
X43308Y220473D02*
D03*
X23623Y181103D02*
D03*
X43308Y141733D02*
D03*
X23623Y102363D02*
D03*
Y23623D02*
D03*
X759842Y469488D02*
D03*
X558809Y65143D02*
D03*
X620079Y191024D02*
D03*
X551716Y331158D02*
D03*
X615606D02*
D03*
Y267267D02*
D03*
X551716D02*
D03*
X695866Y66929D02*
D03*
X624016Y66024D02*
D03*
X481299Y540354D02*
D03*
X698819Y125000D02*
D03*
X426181Y239173D02*
D03*
X706693Y151575D02*
D03*
X710630Y253937D02*
D03*
X704724Y340551D02*
D03*
X625984Y416339D02*
D03*
X572835D02*
D03*
X880905Y335630D02*
D03*
X282480Y427165D02*
D03*
X901575Y238189D02*
D03*
%TF.MD5,d5f590de7724eec00a27cacf9af87a68*%
M02*
