M48
;Layer_Color=9474304
;FILE_FORMAT=4:4
METRIC,LZ
;TYPE=PLATED
T01F00S00C0.2540
T03F00S00C1.1000
;TYPE=NON_PLATED
T04F00S00C1.1000
%
T01
X00006Y00006
X00016
X00026
X00036
X00046
X00056
X00066
X00076
X00086
X00096
X00106
X00116
X00141938Y00016546
X00140136Y00067886
Y00084114
X00116Y00086
X00106
X00096
X00086
X00091Y00096
X00096Y00106
X00106
X00116
X00126
X00121Y00116
X00111
X00101
X00091
X00086Y00126
X00096
X00066
X00056
X00046
X00051Y00136
X00061
X00071
Y00116
X0007175Y001085
X00061Y00096
Y00076
X00071
X00061Y00056
X00041
X00036Y00066
X00026
X00016
X00006
X00011Y00076
X00021
X00031
X00041
X00036Y00086
X00026
X00016
X00006
X00011Y00096
X00006Y00106
X00016
X00021Y00116
X00031
X00036Y00106
X00041Y00096
X00011Y00116
X00006Y00126
X00011Y00056
X00006Y00046
X00016
X00021Y00036
X00031
X00036Y00046
X00011Y00036
X00006Y00026
X00051Y00016
X00081Y00036
X00076Y00046
X0010825Y0006075
X0012225Y0013725
X00141Y00136
X001455Y0010575
X00159
X00156364Y00084114
Y00067886
X001575Y0004852
X001795Y000385
X001775Y0003175
X0017675Y00017
X001585Y0001677
X00206Y00026
Y00046
X00216
X00226
X00231Y00036
X00241
X00261
X00271
X00281
X00291
X00286Y00046
X00276
X00266
X00271Y00056
X00281
X00291
X00286Y00066
X00276
X00266
X00271Y00076
X00281
X00291
X00286Y00086
X00276
X00266
X00256
X00236
X0022375Y0008525
X00216Y00086
X00211Y00096
Y00076
X00206Y00066
X00211Y00056
X00229Y000605
X00226Y00066
X00236
X00261Y00056
X00266Y00026
X00276
X00286
X00291Y00016
X00281
X00271
X00266Y00006
X00276
X00286
X00256
X00246
X00236
X00226
X001805Y000645
X00179Y000865
X00193Y0011925
X00216Y00126
X00226
X00231Y00136
X00241
X00261
X00271
X00281
X00291
X00286Y00126
X00276
X00266
X00271Y00116
X00281
X00291
X00286Y00106
X00276
X00266
X00271Y00096
X00281
X00291
X00231Y00116
X00221Y00136
X00211
X00166Y00126
T03
X0025Y00022699
Y00048099
Y00073499
Y00098899
Y00124299
T04
X00028Y000535
Y000985
M30
